<svg width="47" height="47" viewBox="0 0 47 47" fill="none" xmlns="http://www.w3.org/2000/svg">
<g clip-path="url(#clip0_227_159)">
<path d="M23.5014 47.0027C36.4808 47.0027 47.0027 36.4808 47.0027 23.5014C47.0027 10.5219 36.4808 0 23.5014 0C10.5219 0 0 10.5219 0 23.5014C0 36.4808 10.5219 47.0027 23.5014 47.0027Z" fill="#1E1E1E"/>
<path d="M28.7875 20.9738C28.903 22.5195 28.4437 23.8396 29.2358 25.1158C29.4338 25.4623 29.8051 25.7236 29.8436 26.1361C29.4668 26.9227 28.4492 27.3518 27.8524 28.0091C27.008 28.6417 26.2902 27.184 25.8172 26.634C25.7429 26.5239 25.7457 26.5267 25.6521 26.6175C25.1953 27.0789 24.6726 27.47 24.101 27.7781C22.2473 28.6417 19.4557 28.5234 18.3693 26.5377C16.9749 23.9827 18.5866 20.6795 21.4414 20.1652C22.646 19.8896 23.8713 19.7139 25.1048 19.6399C25.3799 19.4887 25.1708 18.6966 25.1983 18.3803C25.1378 16.8566 23.1026 16.5871 22.1125 17.4562C21.6642 17.778 21.689 18.35 21.3919 18.7461C21.3394 18.7957 21.2759 18.832 21.2065 18.8521C21.1371 18.8722 21.064 18.8755 20.9931 18.8616C20.3358 18.6223 18.1411 19.0404 18.3061 18.0172C18.4207 17.429 18.6593 16.8719 19.0059 16.3829C19.3526 15.894 19.7994 15.4845 20.3165 15.1817C22.6076 13.9715 25.9932 13.867 27.9184 15.7977C29.1533 17.1509 28.6967 19.4199 28.7875 20.9738ZM25.2231 22.2775C25.1736 22.0547 25.3496 21.6339 25.0911 21.6394C24.2381 21.5979 23.388 21.767 22.6158 22.1317C21.6532 22.6213 21.3479 23.8506 21.7027 24.8243C22.0877 26.0839 23.8369 25.9904 24.5163 25.0388C25.1571 24.2852 25.2561 23.1906 25.2231 22.2775Z" fill="#B3B3B3"/>
<path d="M23.4409 32.6956C19.4045 32.7252 15.4984 31.2685 12.4672 28.6031C12.2691 28.4739 12.3379 28.0751 12.6239 28.1906C17.5425 30.9436 23.3121 31.7597 28.8012 30.4789C30.0526 30.2643 31.2133 29.5905 32.4344 29.3787C33.4493 29.9288 30.9382 30.8722 30.5394 31.1417C28.3147 32.1705 25.892 32.7008 23.4409 32.6956Z" fill="#797979"/>
<path d="M33.0889 27.7781C33.5565 27.8111 34.6043 27.7066 34.6456 28.3749C34.6516 29.0048 34.5249 29.6288 34.2738 30.2065C34.0226 30.7841 33.6527 31.3024 33.1879 31.7276C32.7011 32.0576 32.8139 31.469 32.9872 31.2077C34.3431 28.1549 33.1109 28.6005 30.5724 28.793C29.9206 28.2182 32.6489 27.6626 33.0889 27.7781Z" fill="#797979"/>
</g>
<defs>
<clipPath id="clip0_227_159">
<rect width="47" height="47" fill="white"/>
</clipPath>
</defs>
</svg>
