<svg width="16" height="19" viewBox="0 0 16 19" fill="none" xmlns="http://www.w3.org/2000/svg">
<g clip-path="url(#clip0_227_145)">
<path d="M8.00793 6.38098H12.9992C13.2763 6.38098 13.2787 6.38337 13.2787 6.65692C13.2787 9.1987 13.2787 11.7403 13.2787 14.2818C13.2787 14.8552 12.9509 15.1822 12.3743 15.1873C12.0281 15.1905 11.6819 15.1941 11.3361 15.1873C11.1716 15.1833 11.1145 15.2431 11.1157 15.4071C11.1217 16.1836 11.1193 16.9601 11.1177 17.7365C11.1177 18.0348 11.0538 18.3147 10.8657 18.558C10.7256 18.7372 10.5351 18.8707 10.3186 18.9416C10.102 19.0126 9.86927 19.0176 9.64985 18.9562C9.20503 18.8367 8.86962 18.4632 8.82689 18.0081C8.7634 17.3332 8.81332 16.6543 8.80054 15.9773C8.79694 15.7782 8.79615 15.5792 8.80054 15.3801C8.80373 15.2467 8.75142 15.1873 8.61327 15.1889C8.20718 15.1929 7.80109 15.1953 7.3954 15.1889C7.2205 15.1857 7.20573 15.2821 7.20653 15.4171C7.20892 16.1936 7.20892 16.97 7.20653 17.7465C7.20653 18.0977 7.11748 18.4182 6.85514 18.6683C6.49577 19.0092 6.07531 19.084 5.61731 18.9164C5.19006 18.7599 4.91334 18.3458 4.91055 17.8787C4.90576 17.0628 4.90416 16.2461 4.91055 15.4302C4.91055 15.2506 4.86303 15.181 4.67536 15.1877C4.32317 15.1997 3.97019 15.1941 3.61721 15.1901C3.0542 15.1841 2.72357 14.8568 2.72318 14.2926C2.72038 11.7374 2.72318 9.18264 2.71838 6.62786C2.71838 6.43274 2.78786 6.37978 2.97434 6.38018C4.6542 6.38337 6.33086 6.38098 8.00793 6.38098Z" fill="white"/>
<path d="M8.00517 5.92227H3.03467C2.66012 5.92227 2.65932 5.92227 2.73399 5.54558C3.04066 4.0014 3.85204 2.79608 5.1845 1.94993C5.35501 1.84162 5.37098 1.76397 5.27634 1.59514C5.06272 1.21328 4.87145 0.819469 4.6718 0.429642C4.64279 0.37762 4.61987 0.322439 4.60352 0.265189C4.57996 0.164846 4.60951 0.0788368 4.70734 0.0314523C4.80517 -0.0159322 4.89261 0.0222939 4.94892 0.107108C5.00443 0.197399 5.05534 0.290429 5.10145 0.385841C5.28752 0.744211 5.47679 1.10258 5.65568 1.46653C5.71757 1.59235 5.77547 1.62381 5.91522 1.56528C7.28137 0.994009 8.6523 0.984718 10.028 1.5374C10.1762 1.59673 10.25 1.57364 10.3275 1.43388C10.5551 1.02135 10.7967 0.616393 11.0339 0.209443C11.0738 0.140954 11.1065 0.0641038 11.1816 0.0254795C11.2163 0.00463909 11.2569 -0.00419966 11.2971 0.000336773C11.3373 0.0048732 11.3749 0.0225308 11.404 0.0505654C11.4927 0.130203 11.4839 0.225769 11.4288 0.321732C11.2424 0.644 11.0568 0.966003 10.8717 1.28774C10.8055 1.40282 10.7452 1.52227 10.6689 1.63018C10.5831 1.75243 10.6074 1.81574 10.7364 1.89139C11.4253 2.29887 12.0124 2.85711 12.4534 3.52397C12.8933 4.18332 13.1829 4.93092 13.3015 5.71401C13.3283 5.88523 13.2676 5.92187 13.1146 5.92107C12.3759 5.91669 11.6372 5.91908 10.8989 5.91908L8.00517 5.92227ZM10.0017 3.58927C9.99932 3.64366 10.0078 3.69797 10.0267 3.74905C10.0455 3.80014 10.0744 3.84698 10.1115 3.88687C10.1486 3.92676 10.1934 3.9589 10.243 3.98143C10.2927 4.00397 10.3464 4.01644 10.401 4.01812C10.6214 4.02171 10.821 3.8262 10.821 3.60122C10.8192 3.49148 10.7746 3.38675 10.6968 3.30917C10.6189 3.2316 10.5138 3.18725 10.4038 3.18551C10.2971 3.18756 10.1955 3.23079 10.1202 3.30611C10.0449 3.38142 10.0018 3.48294 10.0001 3.58927H10.0017ZM5.21006 3.59843C5.20889 3.65325 5.21872 3.70775 5.23897 3.75872C5.25923 3.80969 5.2895 3.85611 5.328 3.89525C5.3665 3.93439 5.41247 3.96546 5.46319 3.98663C5.5139 4.0078 5.56835 4.01864 5.62334 4.01852C5.73453 4.01641 5.84033 3.97034 5.91746 3.89043C5.99459 3.81053 6.03673 3.70335 6.03462 3.59246C6.0325 3.48157 5.98629 3.37607 5.90617 3.29915C5.82604 3.22224 5.71856 3.18021 5.60736 3.18232C5.49933 3.18535 5.39685 3.23074 5.32217 3.30864C5.24749 3.38654 5.20663 3.49067 5.20846 3.59843H5.21006Z" fill="white"/>
<path d="M0 9.75564C0 8.95289 0 8.15014 0 7.34739C0 6.65932 0.475168 6.16556 1.12962 6.16476C1.79725 6.16476 2.29399 6.65892 2.29558 7.34181C2.29958 8.95422 2.29958 10.5664 2.29558 12.1782C2.29558 12.8595 1.79606 13.3636 1.13481 13.3648C0.489543 13.3676 0.00279511 12.8635 0 12.1846C0 11.3759 0 10.5664 0 9.75564Z" fill="white"/>
<path d="M15.9996 9.75882C15.9996 10.5616 15.9996 11.3644 15.9996 12.1675C15.9996 12.8643 15.5204 13.3644 14.862 13.3664C14.2035 13.3684 13.706 12.8675 13.704 12.179C13.6989 10.5597 13.6989 8.94041 13.704 7.3211C13.704 6.73099 14.1432 6.23206 14.6911 6.17472C15.3156 6.10981 15.8323 6.45345 15.9724 7.03361C15.9928 7.13074 16.0017 7.22988 15.9992 7.32907C16.0008 8.13978 15.9996 8.9493 15.9996 9.75882Z" fill="white"/>
</g>
<defs>
<clipPath id="clip0_227_145">
<rect width="16" height="19" fill="white"/>
</clipPath>
</defs>
</svg>
