<svg width="16" height="19" viewBox="0 0 16 19" fill="none" xmlns="http://www.w3.org/2000/svg">
<path d="M0.00220887 10.6325C-0.026871 9.40739 0.231528 8.19249 0.756685 7.08526C1.11408 6.36488 1.65871 5.75393 2.33347 5.31646C3.00822 4.87899 3.78825 4.63112 4.59176 4.59883C5.03118 4.57671 5.47044 4.6456 5.88199 4.80117C6.42986 4.99068 6.97417 5.19016 7.52061 5.38109C7.84809 5.47745 8.20006 5.4443 8.50378 5.28848C9.22248 4.96123 9.98374 4.73698 10.7651 4.62235C11.4828 4.52205 12.2141 4.59369 12.8987 4.83139C13.5833 5.06909 14.2016 5.46603 14.7027 5.98952C14.7932 6.08 14.873 6.18117 14.9635 6.2745C15.0846 6.39561 15.0896 6.47683 14.9207 6.578C14.4149 6.88023 13.9881 7.29826 13.6754 7.7977C13.2966 8.36906 13.0871 9.03594 13.0712 9.7213C13.0169 10.3468 13.0896 10.9769 13.285 11.5736C13.6955 12.5311 14.4258 13.3163 15.3511 13.795C15.6104 13.9439 15.6147 13.9432 15.5071 14.2118C15.0478 15.4388 14.3939 16.5839 13.5707 17.603C13.1971 18.0658 12.7343 18.4488 12.2099 18.7294C11.8465 18.9125 11.4442 19.0052 11.0373 18.9997C10.6304 18.9943 10.2308 18.8908 9.87238 18.6981C9.37489 18.4458 8.82866 18.3044 8.27127 18.2835C7.71388 18.2626 7.15858 18.3627 6.64359 18.577C6.16484 18.7948 5.65278 18.9304 5.12894 18.9781C4.87003 19.0054 4.60826 18.9797 4.3596 18.9025C4.11095 18.8254 3.88062 18.6983 3.68269 18.5292C1.82715 16.8766 0.58525 14.6449 0.158946 12.197C0.123052 12.0256 0.0959437 11.8525 0.0777277 11.6784C0.0463803 11.2951 0.0228697 10.9125 0.00220887 10.6325Z" fill="white"/>
<path d="M11.6281 0.293007C11.5828 1.39311 11.1707 2.44643 10.4575 3.28526C10.128 3.63892 9.72908 3.92083 9.2857 4.11341C8.84233 4.30598 8.36401 4.40508 7.88062 4.40451C7.7246 4.41092 7.72175 4.31261 7.72745 4.20645C7.75067 3.28381 8.06181 2.39153 8.6173 1.65448C9.32653 0.78315 10.3281 0.19907 11.4357 0.0108803C11.7285 -0.0532395 11.5839 0.181866 11.6281 0.293007Z" fill="white"/>
</svg>
