<svg width="190" height="62" viewBox="0 0 190 62" fill="none" xmlns="http://www.w3.org/2000/svg">
<path d="M30.6002 61.4054C47.5003 61.4054 61.2005 47.6593 61.2005 30.7027C61.2005 13.7461 47.5003 0 30.6002 0C13.7002 0 0 13.7461 0 30.7027C0 47.6593 13.7002 61.4054 30.6002 61.4054Z" fill="#FFDF31"/>
<path d="M54.6801 11.7519C52.7125 9.26 50.3805 7.08112 47.7633 5.28922C41.5302 1.10892 33.9838 -0.628291 26.5579 0.407672C19.1321 1.44363 12.3442 5.18058 7.48423 10.9084C2.62422 16.6363 0.0306861 23.9559 0.196447 31.4765C0.362207 38.9971 3.27571 46.1945 8.38334 51.7012C10.5512 54.0657 13.0718 56.0782 15.855 57.6668C22.0221 61.0241 29.1518 62.1531 36.0497 60.8645C42.9475 59.5759 49.1945 55.948 53.744 50.5887C58.2936 45.2293 60.8693 38.464 61.0397 31.4262C61.2101 24.3884 58.9649 17.5056 54.6801 11.9309V11.7519ZM12.4066 47.0083L43.7004 10.0617C46.3943 11.775 48.7245 14.005 50.5577 16.6238L19.9773 52.7154C17.1054 51.3291 14.5331 49.39 12.4066 47.0083Z" fill="#FFDF31"/>
<path d="M43.7004 10.0621L12.4066 47.0088C8.49216 42.5987 6.29864 36.9175 6.2304 31.0125C6.16216 25.1075 8.2238 19.3768 12.0352 14.8769C15.8467 10.377 21.1509 7.41123 26.9702 6.5264C32.7894 5.64156 38.7313 6.8973 43.7004 10.0621Z" fill="#FFD528"/>
<path d="M54.9972 30.7027C54.9933 34.846 53.9412 38.9205 51.9396 42.5446C49.9379 46.1686 47.0522 49.2235 43.5527 51.4232C40.0533 53.6229 36.0546 54.8954 31.9313 55.1214C27.8079 55.3475 23.6949 54.5197 19.9774 52.7156L50.5578 16.624C53.455 20.7424 55.0062 25.6618 54.9972 30.7027Z" fill="#FFD528"/>
<path d="M48.4966 14.0788C43.8585 9.84059 37.7715 7.55787 31.4998 7.70479C25.2282 7.85171 19.254 10.417 14.818 14.8678C10.3821 19.3185 7.82542 25.3128 7.67899 31.6054C7.53256 37.8981 9.80766 44.0055 14.0317 48.6591C11.5921 46.4299 9.62859 43.7272 8.2599 40.7147C6.8912 37.7022 6.1458 34.4424 6.06878 31.1325C5.99176 27.8227 6.58473 24.5315 7.81181 21.4582C9.03889 18.3849 10.8746 15.5932 13.2078 13.2522C15.5411 10.9111 18.3234 9.06924 21.3865 7.83805C24.4495 6.60686 27.7297 6.01191 31.0285 6.08919C34.3273 6.16647 37.5763 6.91436 40.5787 8.28764C43.5812 9.66092 46.2748 11.631 48.4966 14.0788Z" fill="#EFAE3A"/>
<path d="M44.7311 30.4443H33.5731V30.9613H44.7311V30.4443Z" fill="#EFAE3A"/>
<path d="M46.0589 32.0347C46.7923 32.0347 47.3868 31.4382 47.3868 30.7024C47.3868 29.9666 46.7923 29.3701 46.0589 29.3701C45.3256 29.3701 44.7311 29.9666 44.7311 30.7024C44.7311 31.4382 45.3256 32.0347 46.0589 32.0347Z" fill="#EFAE3A"/>
<path d="M47.9021 23.5836C48.6354 23.5836 49.2299 22.9871 49.2299 22.2513C49.2299 21.5154 48.6354 20.9189 47.9021 20.9189C47.1687 20.9189 46.5742 21.5154 46.5742 22.2513C46.5742 22.9871 47.1687 23.5836 47.9021 23.5836Z" fill="#EFAE3A"/>
<path d="M40.4303 30.7029H39.915V23.2658C39.915 22.9283 40.0487 22.6046 40.2865 22.3659C40.5244 22.1272 40.847 21.9932 41.1834 21.9932H46.5742V22.5102H41.1834C40.9837 22.5102 40.7921 22.5898 40.6509 22.7315C40.5097 22.8732 40.4303 23.0654 40.4303 23.2658V30.7029Z" fill="#EFAE3A"/>
<path d="M47.9021 40.4864C48.6354 40.4864 49.2299 39.8899 49.2299 39.1541C49.2299 38.4183 48.6354 37.8218 47.9021 37.8218C47.1687 37.8218 46.5742 38.4183 46.5742 39.1541C46.5742 39.8899 47.1687 40.4864 47.9021 40.4864Z" fill="#EFAE3A"/>
<path d="M46.5742 39.4123H41.1834C40.847 39.4123 40.5244 39.2783 40.2865 39.0396C40.0487 38.8009 39.915 38.4772 39.915 38.1397V30.7026H40.4303V38.1397C40.4303 38.3401 40.5097 38.5323 40.6509 38.674C40.7921 38.8157 40.9837 38.8953 41.1834 38.8953H46.5742V39.4123Z" fill="#EFAE3A"/>
<path d="M27.6273 30.4443H16.4694V30.9613H27.6273V30.4443Z" fill="#EFAE3A"/>
<path d="M15.1416 32.0347C15.8749 32.0347 16.4694 31.4382 16.4694 30.7024C16.4694 29.9666 15.8749 29.3701 15.1416 29.3701C14.4082 29.3701 13.8137 29.9666 13.8137 30.7024C13.8137 31.4382 14.4082 32.0347 15.1416 32.0347Z" fill="#EFAE3A"/>
<path d="M13.2785 23.5836C14.0119 23.5836 14.6064 22.9871 14.6064 22.2513C14.6064 21.5154 14.0119 20.9189 13.2785 20.9189C12.5452 20.9189 11.9507 21.5154 11.9507 22.2513C11.9507 22.9871 12.5452 23.5836 13.2785 23.5836Z" fill="#EFAE3A"/>
<path d="M21.2855 30.7029H20.7702V23.2658C20.7702 23.0654 20.6908 22.8732 20.5496 22.7315C20.4084 22.5898 20.2168 22.5102 20.0171 22.5102H14.6263V21.9932H20.0171C20.3535 21.9932 20.6761 22.1272 20.914 22.3659C21.1518 22.6046 21.2855 22.9283 21.2855 23.2658V30.7029Z" fill="#EFAE3A"/>
<path d="M13.2785 40.4864C14.0119 40.4864 14.6064 39.8899 14.6064 39.1541C14.6064 38.4183 14.0119 37.8218 13.2785 37.8218C12.5452 37.8218 11.9507 38.4183 11.9507 39.1541C11.9507 39.8899 12.5452 40.4864 13.2785 40.4864Z" fill="#EFAE3A"/>
<path d="M20.0171 39.4123H14.6263V38.8953H20.0171C20.2168 38.8953 20.4084 38.8157 20.5496 38.674C20.6908 38.5323 20.7702 38.3401 20.7702 38.1397V30.7026H21.2855V38.1397C21.2855 38.4772 21.1518 38.8009 20.914 39.0396C20.6761 39.2783 20.3535 39.4123 20.0171 39.4123Z" fill="#EFAE3A"/>
<path d="M30.8578 33.7847H30.3425V44.98H30.8578V33.7847Z" fill="#EFAE3A"/>
<path d="M30.6002 47.6451C31.3336 47.6451 31.9281 47.0486 31.9281 46.3128C31.9281 45.577 31.3336 44.9805 30.6002 44.9805C29.8668 44.9805 29.2723 45.577 29.2723 46.3128C29.2723 47.0486 29.8668 47.6451 30.6002 47.6451Z" fill="#EFAE3A"/>
<path d="M22.1772 49.4942C22.9106 49.4942 23.5051 48.8977 23.5051 48.1619C23.5051 47.4261 22.9106 46.8296 22.1772 46.8296C21.4439 46.8296 20.8494 47.4261 20.8494 48.1619C20.8494 48.8977 21.4439 49.4942 22.1772 49.4942Z" fill="#EFAE3A"/>
<path d="M22.4348 46.8294H21.9196V41.4206C21.9196 41.0831 22.0532 40.7594 22.2911 40.5207C22.5289 40.282 22.8516 40.1479 23.188 40.1479H30.6002V40.665H23.188C22.9882 40.665 22.7967 40.7446 22.6554 40.8863C22.5142 41.028 22.4348 41.2202 22.4348 41.4206V46.8294Z" fill="#EFAE3A"/>
<path d="M39.0233 49.4942C39.7566 49.4942 40.3512 48.8977 40.3512 48.1619C40.3512 47.4261 39.7566 46.8296 39.0233 46.8296C38.2899 46.8296 37.6954 47.4261 37.6954 48.1619C37.6954 48.8977 38.2899 49.4942 39.0233 49.4942Z" fill="#EFAE3A"/>
<path d="M39.2809 46.8294H38.7656V41.4206C38.7656 41.2202 38.6862 41.028 38.545 40.8863C38.4037 40.7446 38.2122 40.665 38.0125 40.665H30.6002V40.1479H38.0125C38.3489 40.1479 38.6715 40.282 38.9094 40.5207C39.1472 40.7594 39.2809 41.0831 39.2809 41.4206V46.8294Z" fill="#EFAE3A"/>
<path d="M30.8578 16.5244H30.3425V27.7198H30.8578V16.5244Z" fill="#EFAE3A"/>
<path d="M30.6002 16.5245C31.3336 16.5245 31.9281 15.928 31.9281 15.1922C31.9281 14.4564 31.3336 13.8599 30.6002 13.8599C29.8668 13.8599 29.2723 14.4564 29.2723 15.1922C29.2723 15.928 29.8668 16.5245 30.6002 16.5245Z" fill="#EFAE3A"/>
<path d="M22.1772 14.6553C22.9106 14.6553 23.5051 14.0588 23.5051 13.323C23.5051 12.5872 22.9106 11.9907 22.1772 11.9907C21.4439 11.9907 20.8494 12.5872 20.8494 13.323C20.8494 14.0588 21.4439 14.6553 22.1772 14.6553Z" fill="#EFAE3A"/>
<path d="M30.6002 21.3567H23.188C22.8516 21.3567 22.5289 21.2226 22.2911 20.984C22.0532 20.7453 21.9196 20.4216 21.9196 20.0841V14.6753H22.4348V20.0841C22.4348 20.2845 22.5142 20.4767 22.6554 20.6184C22.7967 20.7601 22.9882 20.8397 23.188 20.8397H30.6002V21.3567Z" fill="#EFAE3A"/>
<path d="M39.0233 14.6553C39.7566 14.6553 40.3512 14.0588 40.3512 13.323C40.3512 12.5872 39.7566 11.9907 39.0233 11.9907C38.2899 11.9907 37.6954 12.5872 37.6954 13.323C37.6954 14.0588 38.2899 14.6553 39.0233 14.6553Z" fill="#EFAE3A"/>
<path d="M38.0125 21.3567H30.6002V20.8397H38.0125C38.2122 20.8397 38.4037 20.7601 38.545 20.6184C38.6862 20.4767 38.7656 20.2845 38.7656 20.0841V14.6753H39.2809V20.0841C39.2809 20.4216 39.1472 20.7453 38.9094 20.984C38.6715 21.2226 38.3489 21.3567 38.0125 21.3567Z" fill="#EFAE3A"/>
<path d="M30.3624 38.8156C30.2051 38.8186 30.0488 38.7902 29.9025 38.7322C29.7562 38.6742 29.6229 38.5876 29.5101 38.4775C29.4001 38.3688 29.3134 38.2386 29.2554 38.095C29.1975 37.9513 29.1695 37.7973 29.1732 37.6423V25.4726L29.4705 25.8902L27.3697 27.3617C27.1807 27.5193 26.9417 27.604 26.6959 27.6003C26.5463 27.5984 26.3988 27.5657 26.2624 27.5041C26.126 27.4425 26.0037 27.3534 25.9031 27.2424C25.7904 27.1347 25.7007 27.0051 25.6393 26.8615C25.578 26.718 25.5464 26.5634 25.5464 26.4072C25.5506 26.2065 25.6079 26.0106 25.7124 25.8394C25.8168 25.6682 25.9647 25.5279 26.1409 25.4328L29.5894 23.146C29.7151 23.0465 29.8662 22.9844 30.0254 22.9671H30.4614C30.6163 22.9596 30.771 22.9859 30.9147 23.0443C31.0584 23.1026 31.1878 23.1916 31.2938 23.3051C31.4003 23.4155 31.4834 23.5465 31.5379 23.69C31.5924 23.8336 31.6173 23.9868 31.6109 24.1403V37.702C31.6147 37.8569 31.5867 38.011 31.5287 38.1546C31.4708 38.2983 31.3841 38.4285 31.274 38.5372C31.0168 38.7435 30.6905 38.8431 30.3624 38.8156Z" fill="#EFAE3A"/>
<path d="M74.2412 40.7051C73.9119 40.7284 73.5825 40.6596 73.2899 40.5062C73.1876 40.4501 73.0979 40.3734 73.0263 40.2811C72.9547 40.1887 72.9028 40.0826 72.8737 39.9693C72.8424 39.7118 72.8424 39.4514 72.8737 39.1938V24.8566C72.8413 24.6124 72.8413 24.365 72.8737 24.1209C72.9376 23.8893 73.0863 23.6905 73.2899 23.5641C73.6035 23.4096 73.9522 23.341 74.3007 23.3652C74.5576 23.3379 74.8167 23.3379 75.0736 23.3652C75.224 23.3925 75.3663 23.4537 75.4898 23.5442C75.6032 23.6203 75.7035 23.7143 75.7871 23.8226L81.7327 32.2937H81.2571L87.3216 23.8623C87.4198 23.7404 87.5411 23.639 87.6783 23.5641C87.8125 23.4842 87.9604 23.4302 88.1144 23.405H88.8477C89.1895 23.3842 89.531 23.4528 89.8386 23.6038C90.0361 23.7415 90.1769 23.9464 90.235 24.1805C90.2678 24.4313 90.2678 24.6853 90.235 24.9361V39.2734C90.2652 39.5177 90.2652 39.7648 90.235 40.0091C90.1769 40.2327 90.0349 40.4251 89.8386 40.546C89.5191 40.704 89.1631 40.7727 88.808 40.7449C88.4661 40.7656 88.1247 40.6971 87.8171 40.546C87.6233 40.4048 87.4834 40.2013 87.4207 39.9693C87.3892 39.7251 87.3892 39.4778 87.4207 39.2336V28.5354L82.9218 35.0577L82.7038 35.3361C82.5871 35.4492 82.4533 35.5431 82.3074 35.6145C82.0937 35.7012 81.8641 35.7419 81.6336 35.7338C81.4097 35.7402 81.1869 35.6996 80.9796 35.6145C80.8397 35.5431 80.7124 35.449 80.603 35.3361L80.3454 35.0378L75.8663 28.5354V39.2336C75.8966 39.4779 75.8966 39.725 75.8663 39.9693C75.8407 40.0814 75.7922 40.1869 75.724 40.2793C75.6558 40.3717 75.5693 40.4489 75.47 40.5062C75.0923 40.7032 74.6614 40.7729 74.2412 40.7051Z" fill="black"/>
<path d="M94.5951 26.0894C94.2273 26.1168 93.8586 26.0483 93.5249 25.8906C93.4193 25.8241 93.328 25.7371 93.2565 25.6346C93.185 25.5322 93.1348 25.4163 93.1087 25.294C93.0765 25.0232 93.0765 24.7495 93.1087 24.4787C93.0743 24.2081 93.0743 23.9341 93.1087 23.6634C93.1375 23.5448 93.1914 23.4337 93.2666 23.3376C93.3418 23.2416 93.4366 23.1628 93.5447 23.1067C93.8769 22.943 94.2454 22.8676 94.6149 22.8879C94.9851 22.8588 95.3559 22.9346 95.6851 23.1067C95.8797 23.2598 96.0245 23.4674 96.1013 23.7032C96.1352 23.9806 96.1352 24.261 96.1013 24.5384C96.1316 24.8026 96.1316 25.0695 96.1013 25.3338C96.034 25.5636 95.8862 25.7614 95.6851 25.8906C95.3449 26.0499 94.9695 26.1184 94.5951 26.0894ZM94.5951 40.7249C94.2527 40.7547 93.9088 40.6857 93.6042 40.5261C93.501 40.4687 93.4118 40.3889 93.3433 40.2926C93.2747 40.1963 93.2284 40.0858 93.2078 39.9693C93.1754 39.7184 93.1754 39.4645 93.2078 39.2136V29.967C93.1775 29.7227 93.1775 29.4756 93.2078 29.2313C93.2711 29.0102 93.4119 28.8196 93.6042 28.6944C93.9223 28.5556 94.2687 28.4943 94.6149 28.5154C94.9551 28.4885 95.2964 28.5501 95.6059 28.6944C95.7058 28.7557 95.7925 28.8366 95.8606 28.9323C95.9287 29.028 95.9768 29.1364 96.0022 29.2512C96.0238 29.5092 96.0238 29.7686 96.0022 30.0267V39.2335C96.0248 39.4915 96.0248 39.751 96.0022 40.009C95.9764 40.1184 95.9276 40.2211 95.8593 40.3102C95.791 40.3993 95.7046 40.4729 95.6059 40.5261C95.2946 40.6874 94.944 40.7563 94.5951 40.7249Z" fill="black"/>
<path d="M100.244 40.7049C99.9013 40.7315 99.5584 40.6627 99.2526 40.5061C99.0626 40.3738 98.9283 40.1753 98.8761 39.9493C98.8437 39.6985 98.8437 39.4445 98.8761 39.1936V29.8277C98.8447 29.5901 98.8447 29.3494 98.8761 29.1119C98.8994 29.0039 98.9474 28.9029 99.0162 28.8167C99.0849 28.7304 99.1726 28.6613 99.2725 28.6147C99.5782 28.4581 99.9211 28.3893 100.263 28.4159C100.569 28.3991 100.874 28.4536 101.155 28.575C101.327 28.6512 101.467 28.7847 101.552 28.9528C101.579 29.0973 101.579 29.2457 101.552 29.3903C101.552 29.5295 101.552 29.6488 101.552 29.7283L101.453 30.5237C101.57 30.2435 101.738 29.9874 101.948 29.7681C102.201 29.5006 102.488 29.2667 102.8 29.0721C103.14 28.8712 103.498 28.7047 103.87 28.575C104.262 28.456 104.67 28.3956 105.079 28.396C105.761 28.3979 106.436 28.5401 107.061 28.8136C107.666 29.0877 108.201 29.4956 108.627 30.0067C109.074 30.548 109.417 31.1685 109.638 31.8361C109.868 32.6034 109.982 33.4012 109.975 34.2025V39.1539C110.007 39.4047 110.007 39.6587 109.975 39.9095C109.951 40.0225 109.904 40.129 109.835 40.2217C109.767 40.3145 109.679 40.3911 109.578 40.4464C109.267 40.6077 108.916 40.6767 108.567 40.6453C108.219 40.6695 107.87 40.6009 107.557 40.4464C107.362 40.315 107.221 40.1172 107.16 39.8896C107.138 39.6383 107.138 39.3854 107.16 39.134V34.2422C107.175 33.7161 107.074 33.1931 106.863 32.7111C106.67 32.2986 106.36 31.9526 105.971 31.7168C105.517 31.4641 105.003 31.3404 104.485 31.3589C103.979 31.3909 103.489 31.548 103.058 31.8162C102.635 32.0485 102.29 32.4014 102.067 32.8304C101.828 33.2972 101.712 33.8173 101.73 34.3417V39.313C101.753 39.5643 101.753 39.8172 101.73 40.0686C101.707 40.1816 101.659 40.2881 101.591 40.3808C101.522 40.4735 101.435 40.5502 101.334 40.6055C100.989 40.7486 100.609 40.7833 100.244 40.7049Z" fill="black"/>
<path d="M117.704 40.7049C116.984 40.7112 116.271 40.5761 115.603 40.3071C114.971 40.0305 114.404 39.6241 113.938 39.114C113.449 38.5819 113.066 37.961 112.809 37.2846C112.541 36.5248 112.407 35.7241 112.412 34.9183V29.9669C112.39 29.7155 112.39 29.4626 112.412 29.2112C112.468 28.9867 112.611 28.7936 112.809 28.6743C113.445 28.4198 114.154 28.4198 114.791 28.6743C114.888 28.7359 114.972 28.8171 115.037 28.913C115.102 29.0088 115.146 29.1172 115.167 29.2311C115.199 29.4819 115.199 29.7359 115.167 29.9867V34.9183C115.148 35.4468 115.257 35.9721 115.484 36.4494C115.669 36.8721 115.981 37.2265 116.376 37.4636C116.823 37.7146 117.33 37.8384 117.843 37.8215C118.374 37.8375 118.9 37.7141 119.369 37.4636C119.786 37.2301 120.124 36.877 120.34 36.4494C120.585 35.9773 120.708 35.4506 120.697 34.9183V29.947C120.664 29.6961 120.664 29.4422 120.697 29.1913C120.719 29.0804 120.766 28.976 120.834 28.8863C120.903 28.7967 120.992 28.7241 121.093 28.6743C121.406 28.5198 121.755 28.4512 122.104 28.4755C122.446 28.4547 122.787 28.5232 123.095 28.6743C123.286 28.8052 123.421 29.0042 123.471 29.2311C123.536 29.471 123.569 29.7183 123.57 29.9669V39.293C123.568 39.5284 123.535 39.7624 123.471 39.989C123.445 40.0984 123.397 40.201 123.328 40.2901C123.26 40.3793 123.173 40.4528 123.075 40.506C122.77 40.6657 122.426 40.7347 122.084 40.7049C121.821 40.7429 121.554 40.7429 121.291 40.7049C121.131 40.6387 120.989 40.5366 120.875 40.4066C120.791 40.2864 120.731 40.1515 120.697 40.0089C120.686 39.8765 120.686 39.7435 120.697 39.6112L120.895 38.9351C120.77 39.13 120.624 39.3101 120.459 39.472C120.236 39.7082 119.99 39.9214 119.725 40.1083C119.416 40.3249 119.075 40.4926 118.715 40.6054C118.384 40.6865 118.044 40.72 117.704 40.7049Z" fill="black"/>
<path d="M126.84 28.7342H129.397L132.786 28.6546C133.036 28.6222 133.289 28.6222 133.539 28.6546C133.762 28.7129 133.954 28.8554 134.074 29.0524C134.228 29.367 134.297 29.7168 134.272 30.0665C134.297 30.4034 134.229 30.7407 134.074 31.0409C134.019 31.1385 133.945 31.224 133.857 31.2923C133.768 31.3606 133.667 31.4104 133.559 31.4386C133.314 31.5062 133.06 31.5397 132.806 31.538H129.496H126.662C126.501 31.5579 126.338 31.5353 126.189 31.4725C126.039 31.4097 125.909 31.3089 125.81 31.1801C125.628 30.8459 125.545 30.4663 125.572 30.0864C125.54 29.7105 125.646 29.3358 125.869 29.0325C125.991 28.9012 126.144 28.8044 126.315 28.7521C126.485 28.6997 126.667 28.6935 126.84 28.7342ZM132.409 40.6653C131.708 40.6784 131.009 40.5982 130.329 40.4267C129.804 40.3004 129.323 40.0369 128.933 39.6632C128.543 39.2895 128.258 38.8187 128.109 38.299C127.93 37.6515 127.844 36.9821 127.851 36.3104V25.8508C127.85 25.5891 127.883 25.3283 127.95 25.0753C127.975 24.9681 128.021 24.867 128.086 24.7782C128.151 24.6893 128.233 24.6145 128.327 24.5583C128.638 24.4189 128.978 24.3575 129.318 24.3793C129.66 24.3495 130.004 24.4185 130.309 24.5782C130.511 24.6968 130.66 24.8891 130.725 25.1151C130.774 25.3573 130.801 25.6036 130.804 25.8508V36.2906C130.769 36.5678 130.769 36.8485 130.804 37.1257C130.851 37.3131 130.947 37.4847 131.082 37.6229C131.227 37.7343 131.397 37.8093 131.577 37.8416C131.828 37.8656 132.08 37.8656 132.33 37.8416C132.6 37.8083 132.873 37.8083 133.143 37.8416C133.248 37.8579 133.347 37.8988 133.433 37.961C133.519 38.0232 133.59 38.1049 133.638 38.1995C133.781 38.4892 133.842 38.8122 133.817 39.1341C133.846 39.4777 133.778 39.8227 133.618 40.1284C133.487 40.3239 133.29 40.4652 133.063 40.5261C132.819 40.6155 132.567 40.6821 132.31 40.7249L132.409 40.6653Z" fill="black"/>
<path d="M141.942 40.884C140.979 40.9003 140.023 40.7245 139.128 40.3669C138.376 40.0324 137.701 39.5449 137.146 38.9352C136.627 38.3508 136.218 37.6771 135.937 36.9467C135.66 36.1958 135.519 35.4011 135.521 34.6002C135.502 33.4831 135.79 32.3824 136.353 31.4186C136.893 30.4958 137.674 29.7392 138.613 29.2312C139.64 28.6936 140.784 28.4203 141.942 28.4358C142.75 28.416 143.553 28.565 144.301 28.8733C144.929 29.1212 145.502 29.4931 145.985 29.967C146.429 30.3985 146.785 30.9116 147.036 31.4783C147.263 31.9781 147.384 32.5198 147.392 33.0691C147.433 33.4267 147.397 33.7888 147.288 34.1316C147.179 34.4744 146.998 34.79 146.758 35.0576C146.335 35.4558 145.772 35.6702 145.193 35.6542H138.732C138.743 36.1905 138.931 36.708 139.267 37.1257C139.606 37.5505 140.05 37.8794 140.555 38.0801C141.056 38.2985 141.595 38.4135 142.141 38.4182C142.51 38.4416 142.881 38.4416 143.25 38.4182L144.083 38.2392L144.677 37.7819L145.173 37.5432C145.306 37.4853 145.446 37.4451 145.589 37.4239C145.782 37.4074 145.975 37.4489 146.144 37.5432C146.342 37.6712 146.495 37.8592 146.58 38.0801C146.672 38.2226 146.745 38.3763 146.798 38.5375C146.816 38.6695 146.816 38.8032 146.798 38.9352C146.783 39.1281 146.721 39.3144 146.618 39.4774C146.514 39.6405 146.372 39.7753 146.203 39.8698C145.692 40.2179 145.121 40.4674 144.519 40.6056C143.675 40.8041 142.809 40.8976 141.942 40.884ZM138.732 33.8048H143.805C144.032 33.82 144.258 33.7718 144.459 33.6656C144.598 33.6656 144.677 33.3872 144.677 33.089C144.677 32.7139 144.552 32.3496 144.321 32.0549C144.077 31.7395 143.756 31.4928 143.389 31.3391C142.95 31.1562 142.477 31.0681 142.002 31.0806C141.427 31.0722 140.858 31.1946 140.337 31.4385C139.866 31.6504 139.462 31.9873 139.168 32.4129C138.876 32.8173 138.723 33.3057 138.732 33.8048Z" fill="black"/>
<path d="M151.039 40.705C150.691 40.7292 150.342 40.6606 150.028 40.5061C149.924 40.4499 149.834 40.3705 149.766 40.274C149.697 40.1775 149.651 40.0664 149.632 39.9494C149.602 39.6984 149.602 39.4447 149.632 39.1937V24.8565C149.6 24.6123 149.6 24.3649 149.632 24.1208C149.696 23.8892 149.845 23.6904 150.048 23.564C150.362 23.4095 150.71 23.3409 151.059 23.3651H156.311C157.041 23.3611 157.766 23.4891 158.451 23.7429C159.141 23.9842 159.775 24.363 160.314 24.8565C160.876 25.3655 161.322 25.9893 161.622 26.6859C161.971 27.4949 162.14 28.3702 162.118 29.2511C162.144 30.1324 161.974 31.0085 161.622 31.8163C161.322 32.518 160.868 33.1432 160.295 33.6458C159.75 34.1322 159.117 34.5101 158.432 34.7593C157.744 35.0034 157.021 35.1311 156.291 35.1371H152.605V39.2534C152.636 39.5043 152.636 39.7581 152.605 40.009C152.547 40.2326 152.405 40.425 152.208 40.5459C151.844 40.7168 151.436 40.7723 151.039 40.705ZM152.605 32.0549H156.37C156.856 32.0622 157.337 31.9603 157.778 31.7567C158.197 31.5323 158.552 31.2036 158.808 30.8022C159.087 30.3129 159.225 29.755 159.204 29.1915C159.218 28.6715 159.095 28.1572 158.848 27.7001C158.612 27.2911 158.269 26.9543 157.857 26.7257C157.393 26.4794 156.875 26.3561 156.351 26.3678H152.605V32.0549Z" fill="black"/>
<path d="M174.405 40.6849C174.028 40.7124 173.652 40.6146 173.335 40.4065C173.219 40.3235 173.126 40.2127 173.063 40.0842C173.001 39.9557 172.972 39.8135 172.978 39.6707L173.157 38.8355C172.672 39.5414 171.979 40.0769 171.175 40.3667C170.586 40.6131 169.95 40.7284 169.312 40.7047C168.559 40.71 167.814 40.5469 167.132 40.2275C166.441 39.9027 165.821 39.443 165.309 38.8753C164.78 38.2944 164.363 37.6201 164.08 36.8868C163.766 36.1312 163.611 35.3189 163.624 34.5006C163.612 33.7145 163.768 32.9349 164.08 32.2138C164.361 31.4744 164.785 30.7985 165.328 30.2253C165.841 29.6635 166.461 29.2105 167.152 28.893C167.828 28.5758 168.566 28.4128 169.312 28.4157C169.898 28.3985 170.481 28.4861 171.036 28.6742C171.475 28.8371 171.884 29.0723 172.245 29.3702C172.551 29.6197 172.824 29.907 173.058 30.2253L172.899 29.4895C172.888 29.3348 172.915 29.1796 172.977 29.0376C173.039 28.8955 173.135 28.7708 173.256 28.6742C173.574 28.4503 173.959 28.3448 174.346 28.3759C174.69 28.3511 175.035 28.4271 175.337 28.5947C175.53 28.7331 175.664 28.9388 175.713 29.1714C175.735 29.436 175.735 29.7021 175.713 29.9668V39.1736C175.736 39.425 175.736 39.6778 175.713 39.9292C175.688 40.044 175.64 40.1524 175.572 40.2481C175.504 40.3438 175.417 40.4247 175.317 40.486C175.036 40.6314 174.721 40.7 174.405 40.6849ZM169.847 37.7816C170.378 37.7868 170.9 37.6421 171.353 37.364C171.801 37.0764 172.17 36.6796 172.424 36.2107C172.698 35.7005 172.841 35.1299 172.841 34.5503C172.841 33.9707 172.698 33.4001 172.424 32.8899C172.149 32.429 171.768 32.0404 171.314 31.7564C170.854 31.4777 170.325 31.3331 169.788 31.3388C169.216 31.3342 168.655 31.4854 168.163 31.7763C167.687 32.0577 167.297 32.4632 167.033 32.9495C166.75 33.4527 166.606 34.0225 166.617 34.6C166.609 35.1647 166.752 35.7211 167.033 36.2107C167.321 36.6994 167.733 37.1025 168.228 37.3785C168.723 37.6546 169.281 37.7937 169.847 37.7816Z" fill="black"/>
<path d="M183.72 39.5319L177.993 30.7228C177.734 30.4044 177.606 29.9989 177.636 29.5893C177.771 29.2129 178.049 28.9054 178.409 28.7342C178.753 28.4658 179.183 28.3316 179.618 28.3564C179.995 28.506 180.306 28.7889 180.49 29.1518L185.028 36.231L183.72 39.5319ZM181.401 45.7361C180.886 45.4974 180.569 45.2389 180.49 44.9407C180.431 44.5426 180.508 44.1362 180.708 43.7873L187.109 29.4302C187.221 29.0288 187.484 28.6867 187.843 28.4757C188.25 28.4203 188.664 28.4804 189.039 28.6491C189.414 28.8177 189.734 29.0884 189.963 29.4302C190.048 29.8171 189.985 30.2219 189.785 30.5637L183.344 45.0003C183.126 45.5372 182.888 45.8554 182.63 45.9349C182.21 46.0027 181.779 45.933 181.401 45.7361Z" fill="black"/>
<path d="M19.9774 52.7158L15.8551 57.6672C13.0719 56.0786 10.5513 54.0661 8.38342 51.7016L12.3472 46.9292C14.4837 49.3459 17.0773 51.3128 19.9774 52.7158Z" fill="#FFF533"/>
<path d="M54.6801 11.7522L50.5577 16.6241C48.7245 14.0054 46.3942 11.7754 43.7004 10.062L47.7633 5.28955C50.3805 7.08145 52.7125 9.26033 54.6801 11.7522Z" fill="#FFF533"/>
</svg>
