<svg width="150" height="49" viewBox="0 0 150 49" fill="none" xmlns="http://www.w3.org/2000/svg">
<path d="M24.1581 48.478C37.5002 48.478 48.3161 37.6258 48.3161 24.239C48.3161 10.8522 37.5002 0 24.1581 0C10.8159 0 0 10.8522 0 24.239C0 37.6258 10.8159 48.478 24.1581 48.478Z" fill="#FFDF31"/>
<path d="M43.1687 9.278C41.6154 7.31071 39.7743 5.59054 37.7081 4.17588C32.7873 0.875647 26.8296 -0.495838 20.967 0.322028C15.1045 1.13989 9.74569 4.09011 5.90884 8.61211C2.07198 13.1341 0.0244571 18.9128 0.155321 24.8501C0.286184 30.7874 2.58631 36.4695 6.61866 40.8169C8.33013 42.6836 10.3201 44.2724 12.5174 45.5266C17.3861 48.1771 23.0148 49.0684 28.4605 48.0511C33.9062 47.0338 38.838 44.1697 42.4297 39.9386C46.0215 35.7075 48.055 30.3665 48.1895 24.8103C48.324 19.2542 46.5514 13.8204 43.1687 9.41929V9.278ZM9.79488 37.112L34.5006 7.9436C36.6273 9.29627 38.467 11.0568 39.9142 13.1242L15.7718 41.6176C13.5045 40.5232 11.4737 38.9923 9.79488 37.112Z" fill="#FFDF31"/>
<path d="M34.5004 7.9436L9.79469 37.112C6.70437 33.6304 4.97265 29.1453 4.91878 24.4834C4.8649 19.8216 6.49251 15.2973 9.50154 11.7448C12.5106 8.19219 16.6982 5.85081 21.2923 5.15225C25.8864 4.4537 30.5774 5.44507 34.5004 7.9436Z" fill="#FFD528"/>
<path d="M43.4187 24.239C43.4156 27.51 42.585 30.7267 41.0047 33.5878C39.4245 36.4489 37.1463 38.8607 34.3836 40.5973C31.6209 42.3339 28.464 43.3385 25.2087 43.5169C21.9535 43.6954 18.7063 43.0418 15.7715 41.6176L39.9139 13.1242C42.2011 16.3756 43.4258 20.2593 43.4187 24.239Z" fill="#FFD528"/>
<path d="M38.2866 11.1148C34.6249 7.7688 29.8193 5.96666 24.868 6.08264C19.9167 6.19863 15.2003 8.22383 11.6982 11.7376C8.19615 15.2514 6.17771 19.9837 6.06211 24.9516C5.94651 29.9194 7.74264 34.7411 11.0774 38.415C9.15143 36.6551 7.60127 34.5214 6.52072 32.1431C5.44017 29.7648 4.8517 27.1913 4.79089 24.5782C4.73009 21.9652 5.19822 19.3669 6.16697 16.9406C7.13571 14.5143 8.58494 12.3103 10.427 10.4621C12.269 8.61393 14.4656 7.15984 16.8838 6.18785C19.302 5.21586 21.8916 4.74616 24.496 4.80717C27.1003 4.86818 29.6652 5.45862 32.0356 6.54279C34.4059 7.62696 36.5325 9.18231 38.2866 11.1148Z" fill="#EFAE3A"/>
<path d="M35.3138 24.0349H26.5049V24.4431H35.3138V24.0349Z" fill="#EFAE3A"/>
<path d="M36.3623 25.2908C36.9412 25.2908 37.4106 24.8199 37.4106 24.239C37.4106 23.6581 36.9412 23.1872 36.3623 23.1872C35.7833 23.1872 35.314 23.6581 35.314 24.239C35.314 24.8199 35.7833 25.2908 36.3623 25.2908Z" fill="#EFAE3A"/>
<path d="M37.8174 18.6188C38.3963 18.6188 38.8657 18.1479 38.8657 17.567C38.8657 16.9861 38.3963 16.5152 37.8174 16.5152C37.2384 16.5152 36.769 16.9861 36.769 17.567C36.769 18.1479 37.2384 18.6188 37.8174 18.6188Z" fill="#EFAE3A"/>
<path d="M31.9185 24.239H31.5117V18.3676C31.5117 18.1011 31.6172 17.8456 31.805 17.6572C31.9928 17.4687 32.2475 17.3629 32.5131 17.3629H36.7689V17.7711H32.5131C32.3554 17.7711 32.2042 17.8339 32.0927 17.9458C31.9812 18.0577 31.9185 18.2094 31.9185 18.3676V24.239Z" fill="#EFAE3A"/>
<path d="M37.8174 31.9628C38.3963 31.9628 38.8657 31.4919 38.8657 30.911C38.8657 30.3301 38.3963 29.8592 37.8174 29.8592C37.2384 29.8592 36.769 30.3301 36.769 30.911C36.769 31.4919 37.2384 31.9628 37.8174 31.9628Z" fill="#EFAE3A"/>
<path d="M36.7689 31.1151H32.5131C32.2475 31.1151 31.9928 31.0092 31.805 30.8208C31.6172 30.6324 31.5117 30.3768 31.5117 30.1103V24.239H31.9185V30.1103C31.9185 30.2686 31.9812 30.4203 32.0927 30.5322C32.2042 30.644 32.3554 30.7069 32.5131 30.7069H36.7689V31.1151Z" fill="#EFAE3A"/>
<path d="M21.8109 24.0349H13.002V24.4431H21.8109V24.0349Z" fill="#EFAE3A"/>
<path d="M11.9541 25.2908C12.533 25.2908 13.0024 24.8199 13.0024 24.239C13.0024 23.6581 12.533 23.1872 11.9541 23.1872C11.3751 23.1872 10.9058 23.6581 10.9058 24.239C10.9058 24.8199 11.3751 25.2908 11.9541 25.2908Z" fill="#EFAE3A"/>
<path d="M10.4829 18.6188C11.0618 18.6188 11.5312 18.1479 11.5312 17.567C11.5312 16.9861 11.0618 16.5152 10.4829 16.5152C9.90391 16.5152 9.43457 16.9861 9.43457 17.567C9.43457 18.1479 9.90391 18.6188 10.4829 18.6188Z" fill="#EFAE3A"/>
<path d="M16.8041 24.239H16.3973V18.3676C16.3973 18.2094 16.3346 18.0577 16.2231 17.9458C16.1116 17.8339 15.9604 17.7711 15.8027 17.7711H11.5469V17.3629H15.8027C16.0683 17.3629 16.323 17.4687 16.5108 17.6572C16.6986 17.8456 16.8041 18.1011 16.8041 18.3676V24.239Z" fill="#EFAE3A"/>
<path d="M10.4829 31.9628C11.0618 31.9628 11.5312 31.4919 11.5312 30.911C11.5312 30.3301 11.0618 29.8592 10.4829 29.8592C9.90391 29.8592 9.43457 30.3301 9.43457 30.911C9.43457 31.4919 9.90391 31.9628 10.4829 31.9628Z" fill="#EFAE3A"/>
<path d="M15.8027 31.1151H11.5469V30.7069H15.8027C15.9604 30.7069 16.1116 30.644 16.2231 30.5322C16.3346 30.4203 16.3973 30.2686 16.3973 30.1103V24.239H16.8041V30.1103C16.8041 30.3768 16.6986 30.6324 16.5108 30.8208C16.323 31.0092 16.0683 31.1151 15.8027 31.1151Z" fill="#EFAE3A"/>
<path d="M24.3614 26.6723H23.9546V35.5107H24.3614V26.6723Z" fill="#EFAE3A"/>
<path d="M24.1582 37.6144C24.7371 37.6144 25.2065 37.1435 25.2065 36.5626C25.2065 35.9817 24.7371 35.5107 24.1582 35.5107C23.5792 35.5107 23.1099 35.9817 23.1099 36.5626C23.1099 37.1435 23.5792 37.6144 24.1582 37.6144Z" fill="#EFAE3A"/>
<path d="M17.5083 39.0744C18.0872 39.0744 18.5566 38.6034 18.5566 38.0225C18.5566 37.4416 18.0872 36.9707 17.5083 36.9707C16.9293 36.9707 16.46 37.4416 16.46 38.0225C16.46 38.6034 16.9293 39.0744 17.5083 39.0744Z" fill="#EFAE3A"/>
<path d="M17.712 36.9707H17.3052V32.7006C17.3052 32.4342 17.4107 32.1786 17.5985 31.9902C17.7863 31.8018 18.041 31.6959 18.3065 31.6959H24.1583V32.1041H18.3065C18.1489 32.1041 17.9976 32.1669 17.8861 32.2788C17.7746 32.3907 17.712 32.5424 17.712 32.7006V36.9707Z" fill="#EFAE3A"/>
<path d="M30.8076 39.0744C31.3866 39.0744 31.8559 38.6034 31.8559 38.0225C31.8559 37.4416 31.3866 36.9707 30.8076 36.9707C30.2286 36.9707 29.7593 37.4416 29.7593 38.0225C29.7593 38.6034 30.2286 39.0744 30.8076 39.0744Z" fill="#EFAE3A"/>
<path d="M31.0113 36.9707H30.6045V32.7006C30.6045 32.5424 30.5419 32.3907 30.4304 32.2788C30.3189 32.1669 30.1677 32.1041 30.01 32.1041H24.1582V31.6959H30.01C30.2755 31.6959 30.5302 31.8018 30.718 31.9902C30.9058 32.1786 31.0113 32.4342 31.0113 32.7006V36.9707Z" fill="#EFAE3A"/>
<path d="M24.3614 13.0457H23.9546V21.8842H24.3614V13.0457Z" fill="#EFAE3A"/>
<path d="M24.1582 13.0457C24.7371 13.0457 25.2065 12.5748 25.2065 11.9939C25.2065 11.413 24.7371 10.9421 24.1582 10.9421C23.5792 10.9421 23.1099 11.413 23.1099 11.9939C23.1099 12.5748 23.5792 13.0457 24.1582 13.0457Z" fill="#EFAE3A"/>
<path d="M17.5083 11.57C18.0872 11.57 18.5566 11.0991 18.5566 10.5182C18.5566 9.9373 18.0872 9.46639 17.5083 9.46639C16.9293 9.46639 16.46 9.9373 16.46 10.5182C16.46 11.0991 16.9293 11.57 17.5083 11.57Z" fill="#EFAE3A"/>
<path d="M24.1583 16.8605H18.3065C18.041 16.8605 17.7863 16.7547 17.5985 16.5663C17.4107 16.3778 17.3052 16.1223 17.3052 15.8558V11.5857H17.712V15.8558C17.712 16.014 17.7746 16.1658 17.8861 16.2776C17.9976 16.3895 18.1489 16.4524 18.3065 16.4524H24.1583V16.8605Z" fill="#EFAE3A"/>
<path d="M30.8076 11.57C31.3866 11.57 31.8559 11.0991 31.8559 10.5182C31.8559 9.9373 31.3866 9.46639 30.8076 9.46639C30.2286 9.46639 29.7593 9.9373 29.7593 10.5182C29.7593 11.0991 30.2286 11.57 30.8076 11.57Z" fill="#EFAE3A"/>
<path d="M30.01 16.8605H24.1582V16.4524H30.01C30.1677 16.4524 30.3189 16.3895 30.4304 16.2776C30.5419 16.1658 30.6045 16.014 30.6045 15.8558V11.5857H31.0113V15.8558C31.0113 16.1223 30.9058 16.3778 30.718 16.5663C30.5302 16.7547 30.2755 16.8605 30.01 16.8605Z" fill="#EFAE3A"/>
<path d="M23.9705 30.6441C23.8464 30.6465 23.723 30.6241 23.6075 30.5783C23.492 30.5325 23.3867 30.4641 23.2977 30.3772C23.2108 30.2914 23.1424 30.1886 23.0966 30.0752C23.0509 29.9618 23.0288 29.8402 23.0318 29.7179V20.1102L23.2664 20.4399L21.6079 21.6016C21.4587 21.726 21.27 21.7928 21.0759 21.79C20.9579 21.7885 20.8414 21.7626 20.7337 21.714C20.6261 21.6654 20.5295 21.595 20.4501 21.5074C20.3611 21.4223 20.2902 21.3201 20.2418 21.2067C20.1934 21.0934 20.1685 20.9713 20.1685 20.848C20.1718 20.6896 20.217 20.5349 20.2995 20.3997C20.382 20.2646 20.4987 20.1538 20.6378 20.0788L23.3603 18.2734C23.4596 18.1948 23.5789 18.1458 23.7045 18.1321H24.0488C24.171 18.1262 24.2931 18.147 24.4066 18.1931C24.5201 18.2392 24.6222 18.3094 24.7059 18.399C24.79 18.4862 24.8556 18.5895 24.8986 18.7029C24.9416 18.8162 24.9612 18.9372 24.9563 19.0584V29.765C24.9592 29.8873 24.9371 30.0089 24.8914 30.1223C24.8456 30.2357 24.7772 30.3385 24.6903 30.4243C24.4872 30.5872 24.2296 30.6658 23.9705 30.6441Z" fill="#EFAE3A"/>
<path d="M58.6115 32.1355C58.3515 32.1539 58.0915 32.0996 57.8605 31.9785C57.7797 31.9342 57.7089 31.8737 57.6524 31.8008C57.5959 31.7278 57.5549 31.6441 57.5319 31.5546C57.5072 31.3513 57.5072 31.1457 57.5319 30.9424V19.6235C57.5063 19.4308 57.5063 19.2354 57.5319 19.0427C57.5824 18.8599 57.6997 18.7029 57.8605 18.6031C58.108 18.4811 58.3833 18.427 58.6584 18.4461C58.8613 18.4245 59.0658 18.4245 59.2687 18.4461C59.3874 18.4677 59.4998 18.516 59.5972 18.5874C59.6867 18.6475 59.766 18.7217 59.8319 18.8072L64.5259 25.4949H64.1503L68.9382 18.8386C69.0157 18.7423 69.1114 18.6623 69.2198 18.6031C69.3257 18.54 69.4425 18.4974 69.564 18.4775H70.1429C70.4128 18.4611 70.6824 18.5152 70.9252 18.6345C71.0811 18.7431 71.1924 18.9049 71.2382 19.0898C71.2641 19.2878 71.2641 19.4883 71.2382 19.6863V31.0052C71.2621 31.198 71.2621 31.3932 71.2382 31.586C71.1923 31.7626 71.0802 31.9144 70.9252 32.0099C70.673 32.1346 70.392 32.1889 70.1116 32.1669C69.8417 32.1833 69.5722 32.1292 69.3293 32.0099C69.1763 31.8984 69.0659 31.7377 69.0164 31.5546C68.9915 31.3618 68.9915 31.1666 69.0164 30.9738V22.5278L65.4646 27.677L65.2925 27.8968C65.2004 27.9861 65.0948 28.0603 64.9796 28.1166C64.8108 28.1851 64.6296 28.2171 64.4476 28.2108C64.2708 28.2159 64.095 28.1838 63.9313 28.1166C63.8208 28.0602 63.7204 27.986 63.634 27.8968L63.4306 27.6613L59.8945 22.5278V30.9738C59.9184 31.1666 59.9184 31.3618 59.8945 31.5546C59.8742 31.6431 59.836 31.7264 59.7821 31.7993C59.7283 31.8723 59.66 31.9333 59.5816 31.9785C59.2834 32.134 58.9433 32.189 58.6115 32.1355Z" fill="#310E3A"/>
<path d="M74.6802 20.5969C74.3898 20.6184 74.0987 20.5644 73.8353 20.4399C73.7519 20.3874 73.6798 20.3187 73.6234 20.2378C73.567 20.1569 73.5273 20.0655 73.5067 19.9689C73.4813 19.7551 73.4813 19.539 73.5067 19.3252C73.4795 19.1116 73.4795 18.8953 73.5067 18.6816C73.5295 18.5879 73.572 18.5002 73.6313 18.4244C73.6907 18.3486 73.7656 18.2864 73.8509 18.242C74.1132 18.1128 74.4041 18.0533 74.6958 18.0693C74.988 18.0464 75.2808 18.1062 75.5407 18.242C75.6943 18.3629 75.8087 18.5268 75.8693 18.713C75.896 18.932 75.896 19.1534 75.8693 19.3723C75.8932 19.581 75.8932 19.7917 75.8693 20.0003C75.8162 20.1818 75.6995 20.3378 75.5407 20.4399C75.2722 20.5657 74.9757 20.6197 74.6802 20.5969ZM74.6802 32.1512C74.4098 32.1747 74.1384 32.1203 73.8979 31.9942C73.8164 31.9489 73.746 31.8859 73.6919 31.8099C73.6378 31.7339 73.6012 31.6466 73.5849 31.5546C73.5594 31.3566 73.5594 31.1561 73.5849 30.9581V23.6581C73.561 23.4652 73.561 23.2701 73.5849 23.0773C73.6349 22.9028 73.7461 22.7522 73.8979 22.6534C74.149 22.5438 74.4225 22.4954 74.6958 22.5121C74.9644 22.4908 75.2339 22.5395 75.4782 22.6534C75.5571 22.7018 75.6255 22.7657 75.6792 22.8412C75.733 22.9167 75.771 23.0024 75.7911 23.093C75.8081 23.2967 75.8081 23.5015 75.7911 23.7052V30.9738C75.8089 31.1775 75.8089 31.3823 75.7911 31.586C75.7706 31.6724 75.7322 31.7534 75.6782 31.8238C75.6243 31.8941 75.5561 31.9522 75.4782 31.9942C75.2324 32.1215 74.9556 32.176 74.6802 32.1512Z" fill="#310E3A"/>
<path d="M79.1398 32.1355C78.8696 32.1565 78.5988 32.1022 78.3575 31.9785C78.2074 31.8741 78.1014 31.7174 78.0602 31.5389C78.0346 31.3409 78.0346 31.1404 78.0602 30.9424V23.5482C78.0354 23.3607 78.0354 23.1706 78.0602 22.9831C78.0786 22.8979 78.1165 22.8181 78.1708 22.75C78.2251 22.6819 78.2943 22.6274 78.3731 22.5906C78.6145 22.467 78.8852 22.4126 79.1554 22.4336C79.3966 22.4204 79.6376 22.4634 79.8595 22.5592C79.995 22.6194 80.1056 22.7248 80.1724 22.8575C80.194 22.9716 80.194 23.0888 80.1724 23.2029C80.1724 23.3127 80.1724 23.4069 80.1724 23.4697L80.0942 24.0977C80.1871 23.8765 80.3197 23.6743 80.4854 23.5011C80.6854 23.29 80.9115 23.1054 81.1582 22.9517C81.4261 22.7931 81.7092 22.6616 82.0031 22.5592C82.3126 22.4652 82.6342 22.4176 82.9575 22.4179C83.496 22.4194 84.0285 22.5316 84.5222 22.7476C84.9997 22.964 85.4223 23.286 85.7582 23.6895C86.1115 24.1169 86.3822 24.6067 86.5562 25.1338C86.7381 25.7395 86.8278 26.3694 86.8222 27.002V30.911C86.8477 31.109 86.8477 31.3095 86.8222 31.5075C86.8038 31.5967 86.7663 31.6808 86.7122 31.754C86.6582 31.8272 86.5889 31.8877 86.5093 31.9314C86.2635 32.0588 85.9867 32.1132 85.7113 32.0884C85.4362 32.1075 85.1609 32.0534 84.9133 31.9314C84.7595 31.8277 84.6483 31.6715 84.6004 31.4918C84.5825 31.2934 84.5825 31.0937 84.6004 30.8953V27.0334C84.6122 26.618 84.532 26.2051 84.3657 25.8246C84.2134 25.4989 83.9684 25.2257 83.6616 25.0396C83.3033 24.8401 82.8976 24.7424 82.4881 24.757C82.0887 24.7823 81.7016 24.9063 81.3616 25.1181C81.0276 25.3015 80.7554 25.5801 80.5793 25.9188C80.3908 26.2873 80.2993 26.6979 80.3133 27.1119V31.0366C80.3312 31.235 80.3312 31.4347 80.3133 31.6331C80.2949 31.7223 80.2573 31.8064 80.2033 31.8796C80.1493 31.9528 80.08 32.0133 80.0003 32.057C79.728 32.17 79.4279 32.1974 79.1398 32.1355Z" fill="#310E3A"/>
<path d="M92.9239 32.1355C92.3559 32.1405 91.7925 32.0338 91.2654 31.8215C90.7665 31.6031 90.3188 31.2822 89.9511 30.8796C89.5649 30.4595 89.2622 29.9693 89.0592 29.4353C88.8479 28.8354 88.742 28.2033 88.7463 27.5671V23.6581C88.7284 23.4597 88.7284 23.26 88.7463 23.0616C88.7906 22.8843 88.9032 22.7319 89.0592 22.6377C89.5616 22.4367 90.1216 22.4367 90.6239 22.6377C90.7011 22.6863 90.7674 22.7504 90.8186 22.8261C90.8698 22.9018 90.9047 22.9873 90.9212 23.0773C90.9467 23.2753 90.9467 23.4758 90.9212 23.6738V27.5671C90.9063 27.9844 90.9922 28.3991 91.1715 28.7759C91.3178 29.1096 91.5639 29.3894 91.8756 29.5766C92.2287 29.7748 92.629 29.8725 93.0334 29.8592C93.4527 29.8718 93.868 29.7744 94.2382 29.5766C94.5675 29.3923 94.8345 29.1135 95.0049 28.7759C95.1987 28.4032 95.2956 27.9874 95.2865 27.5671V23.6424C95.261 23.4444 95.261 23.2439 95.2865 23.0459C95.3039 22.9583 95.3412 22.8759 95.3954 22.8051C95.4497 22.7343 95.5195 22.677 95.5994 22.6377C95.847 22.5157 96.1223 22.4616 96.3974 22.4807C96.6673 22.4643 96.9369 22.5184 97.1797 22.6377C97.3309 22.741 97.4372 22.8982 97.477 23.0773C97.5281 23.2667 97.5544 23.4619 97.5552 23.6581V31.0209C97.5535 31.2067 97.5272 31.3914 97.477 31.5703C97.4566 31.6567 97.4181 31.7377 97.3642 31.8081C97.3102 31.8784 97.242 31.9365 97.1641 31.9785C96.9236 32.1046 96.6521 32.159 96.3818 32.1355C96.1742 32.1655 95.9635 32.1655 95.7559 32.1355C95.6299 32.0832 95.5175 32.0027 95.4273 31.9C95.3613 31.8051 95.3135 31.6986 95.2865 31.586C95.278 31.4815 95.278 31.3765 95.2865 31.2721L95.443 30.7383C95.3446 30.8922 95.2291 31.0344 95.0988 31.1622C94.923 31.3486 94.7291 31.5169 94.5198 31.6645C94.2755 31.8356 94.0063 31.9679 93.7219 32.057C93.4609 32.121 93.1923 32.1474 92.9239 32.1355Z" fill="#310E3A"/>
<path d="M100.137 22.6848H102.156L104.831 22.622C105.028 22.5964 105.228 22.5964 105.426 22.622C105.602 22.668 105.753 22.7805 105.848 22.936C105.97 23.1844 106.024 23.4606 106.005 23.7366C106.024 24.0026 105.97 24.2689 105.848 24.5059C105.805 24.5829 105.746 24.6504 105.676 24.7043C105.607 24.7583 105.527 24.7976 105.441 24.8198C105.248 24.8732 105.048 24.8996 104.847 24.8983H102.234H99.9963C99.8694 24.914 99.7405 24.8962 99.6225 24.8466C99.5046 24.7971 99.4015 24.7175 99.3235 24.6157C99.1798 24.3519 99.1147 24.0522 99.1358 23.7523C99.1105 23.4556 99.194 23.1598 99.3705 22.9203C99.4662 22.8166 99.5875 22.7403 99.7222 22.6989C99.8568 22.6575 100 22.6527 100.137 22.6848ZM104.534 32.1041C103.98 32.1145 103.428 32.0511 102.891 31.9157C102.477 31.816 102.097 31.608 101.789 31.313C101.481 31.0179 101.257 30.6463 101.139 30.2359C100.998 29.7248 100.929 29.1963 100.935 28.666V20.4085C100.934 20.2018 100.96 19.9959 101.013 19.7962C101.033 19.7116 101.069 19.6318 101.12 19.5616C101.171 19.4915 101.236 19.4324 101.311 19.388C101.556 19.278 101.825 19.2295 102.093 19.2468C102.363 19.2232 102.635 19.2777 102.875 19.4037C103.035 19.4974 103.153 19.6492 103.204 19.8276C103.243 20.0189 103.264 20.2133 103.266 20.4085V28.6503C103.239 28.8692 103.239 29.0908 103.266 29.3097C103.304 29.4576 103.379 29.5931 103.485 29.7022C103.6 29.7901 103.734 29.8494 103.877 29.8749C104.074 29.8938 104.273 29.8938 104.471 29.8749C104.684 29.8486 104.9 29.8486 105.113 29.8749C105.195 29.8877 105.274 29.92 105.342 29.9691C105.41 30.0182 105.465 30.0828 105.504 30.1574C105.616 30.3861 105.665 30.6411 105.645 30.8953C105.668 31.1665 105.614 31.4389 105.488 31.6802C105.385 31.8346 105.229 31.9461 105.05 31.9942C104.857 32.0648 104.658 32.1173 104.456 32.1512L104.534 32.1041Z" fill="#310E3A"/>
<path d="M112.06 32.2768C111.3 32.2896 110.544 32.1509 109.838 31.8686C109.244 31.6045 108.711 31.2196 108.273 30.7383C107.864 30.2769 107.54 29.7451 107.319 29.1684C107.1 28.5756 106.989 27.9482 106.99 27.3159C106.976 26.434 107.203 25.565 107.648 24.8041C108.073 24.0756 108.69 23.4783 109.431 23.0773C110.242 22.6528 111.145 22.437 112.06 22.4493C112.698 22.4336 113.332 22.5513 113.922 22.7947C114.418 22.9904 114.87 23.284 115.252 23.6581C115.602 23.9988 115.883 24.4038 116.081 24.8512C116.26 25.2459 116.356 25.6735 116.363 26.1071C116.395 26.3895 116.366 26.6754 116.28 26.946C116.194 27.2166 116.051 27.4657 115.862 27.677C115.528 27.9914 115.084 28.1607 114.626 28.148H109.525C109.534 28.5714 109.683 28.98 109.948 29.3097C110.216 29.6451 110.566 29.9048 110.965 30.0632C111.36 30.2357 111.785 30.3264 112.216 30.3301C112.508 30.3486 112.801 30.3486 113.093 30.3301L113.75 30.1888L114.219 29.8278L114.61 29.6394C114.715 29.5936 114.826 29.5619 114.939 29.5452C115.091 29.5321 115.243 29.5649 115.377 29.6394C115.534 29.7404 115.654 29.8888 115.721 30.0632C115.794 30.1757 115.851 30.2971 115.893 30.4243C115.907 30.5285 115.907 30.6341 115.893 30.7383C115.882 30.8906 115.833 31.0376 115.751 31.1664C115.669 31.2951 115.557 31.4015 115.424 31.4761C115.02 31.7509 114.569 31.9479 114.094 32.057C113.427 32.2137 112.744 32.2875 112.06 32.2768ZM109.525 26.688H113.531C113.71 26.7 113.888 26.6619 114.047 26.5781C114.157 26.5781 114.219 26.3583 114.219 26.1228C114.219 25.8267 114.12 25.5392 113.937 25.3065C113.745 25.0575 113.492 24.8627 113.202 24.7413C112.855 24.597 112.482 24.5274 112.107 24.5373C111.653 24.5306 111.204 24.6273 110.793 24.8198C110.421 24.9871 110.102 25.2531 109.869 25.5891C109.639 25.9084 109.518 26.294 109.525 26.688Z" fill="#310E3A"/>
<path d="M119.241 32.1355C118.966 32.1546 118.691 32.1005 118.443 31.9785C118.361 31.9341 118.29 31.8714 118.236 31.7952C118.182 31.719 118.146 31.6313 118.131 31.5389C118.107 31.3408 118.107 31.1405 118.131 30.9424V19.6235C118.105 19.4308 118.105 19.2354 118.131 19.0427C118.181 18.8599 118.298 18.7029 118.459 18.6031C118.707 18.4811 118.982 18.427 119.257 18.4461H123.403C123.98 18.443 124.552 18.544 125.093 18.7444C125.638 18.9348 126.138 19.2339 126.564 19.6235C127.007 20.0253 127.359 20.5179 127.597 21.0678C127.872 21.7065 128.005 22.3975 127.988 23.093C128.008 23.7887 127.875 24.4804 127.597 25.1181C127.359 25.6721 127.001 26.1656 126.548 26.5624C126.118 26.9464 125.619 27.2448 125.078 27.4415C124.535 27.6343 123.964 27.7351 123.388 27.7398H120.478V30.9895C120.502 31.1876 120.502 31.3879 120.478 31.586C120.432 31.7626 120.32 31.9144 120.165 32.0099C119.877 32.1448 119.555 32.1886 119.241 32.1355ZM120.478 25.3065H123.45C123.834 25.3122 124.213 25.2318 124.561 25.071C124.892 24.8939 125.172 24.6344 125.375 24.3175C125.595 23.9312 125.704 23.4907 125.688 23.0459C125.699 22.6354 125.601 22.2293 125.406 21.8685C125.22 21.5456 124.949 21.2797 124.624 21.0992C124.258 20.9047 123.849 20.8074 123.435 20.8166H120.478V25.3065Z" fill="#310E3A"/>
<path d="M137.689 32.1198C137.39 32.1416 137.094 32.0643 136.844 31.9C136.752 31.8345 136.678 31.747 136.629 31.6456C136.58 31.5441 136.557 31.4319 136.562 31.3191L136.703 30.6598C136.32 31.2171 135.773 31.6398 135.138 31.8686C134.673 32.0631 134.171 32.1542 133.667 32.1355C133.073 32.1396 132.485 32.0109 131.946 31.7587C131.401 31.5023 130.911 31.1394 130.507 30.6912C130.09 30.2326 129.761 29.7003 129.537 29.1213C129.289 28.5248 129.167 27.8835 129.177 27.2375C129.167 26.6168 129.29 26.0014 129.537 25.4321C129.758 24.8484 130.093 24.3147 130.522 23.8622C130.927 23.4187 131.417 23.0611 131.962 22.8104C132.496 22.56 133.078 22.4313 133.667 22.4336C134.13 22.42 134.591 22.4892 135.029 22.6377C135.375 22.7663 135.698 22.952 135.983 23.1872C136.224 23.3842 136.44 23.611 136.625 23.8622L136.499 23.2814C136.491 23.1592 136.512 23.0367 136.561 22.9246C136.61 22.8124 136.685 22.7139 136.781 22.6377C137.032 22.461 137.336 22.3777 137.642 22.4022C137.913 22.3826 138.185 22.4426 138.424 22.5749C138.576 22.6842 138.682 22.8466 138.721 23.0302C138.739 23.2391 138.739 23.4492 138.721 23.6581V30.9267C138.739 31.1251 138.739 31.3248 138.721 31.5232C138.701 31.6138 138.663 31.6995 138.609 31.775C138.556 31.8505 138.487 31.9144 138.408 31.9628C138.186 32.0776 137.938 32.1317 137.689 32.1198ZM134.09 29.8278C134.509 29.8318 134.921 29.7176 135.279 29.4981C135.633 29.271 135.923 28.9577 136.124 28.5875C136.34 28.1847 136.454 27.7343 136.454 27.2767C136.454 26.8191 136.34 26.3687 136.124 25.9658C135.907 25.602 135.606 25.2952 135.248 25.071C134.884 24.851 134.467 24.7368 134.043 24.7413C133.592 24.7377 133.148 24.857 132.76 25.0867C132.385 25.3089 132.076 25.629 131.868 26.0129C131.645 26.4101 131.531 26.86 131.539 27.3159C131.533 27.7617 131.647 28.201 131.868 28.5875C132.095 28.9734 132.421 29.2916 132.812 29.5095C133.202 29.7275 133.643 29.8373 134.09 29.8278Z" fill="#310E3A"/>
<path d="M145.042 31.2093L140.52 24.2547C140.316 24.0033 140.215 23.6832 140.239 23.3598C140.345 23.0627 140.564 22.8199 140.849 22.6848C141.121 22.4729 141.46 22.3669 141.803 22.3865C142.101 22.5046 142.346 22.7279 142.492 23.0145L146.075 28.6032L145.042 31.2093ZM143.211 36.1073C142.805 35.9189 142.554 35.7148 142.492 35.4793C142.445 35.165 142.506 34.8443 142.664 34.5688L147.718 23.2343C147.806 22.9174 148.014 22.6473 148.297 22.4807C148.618 22.437 148.945 22.4844 149.241 22.6175C149.537 22.7507 149.79 22.9643 149.971 23.2343C150.038 23.5397 149.988 23.8593 149.83 24.1291L144.745 35.5264C144.573 35.9503 144.385 36.2015 144.182 36.2643C143.85 36.3178 143.51 36.2628 143.211 36.1073Z" fill="#310E3A"/>
<path d="M15.7718 41.6176L12.5174 45.5266C10.3201 44.2724 8.33012 42.6836 6.61865 40.8169L9.74794 37.0492C11.4347 38.9571 13.4822 40.5099 15.7718 41.6176Z" fill="#FFF533"/>
<path d="M43.1686 9.278L39.9141 13.1242C38.4669 11.0568 36.6272 9.29627 34.5005 7.9436L37.708 4.17588C39.7742 5.59054 41.6153 7.31071 43.1686 9.278Z" fill="#FFF533"/>
</svg>
