<svg width="150" height="49" viewBox="0 0 150 49" fill="none" xmlns="http://www.w3.org/2000/svg">
<path d="M24.1581 48.478C37.5002 48.478 48.3161 37.6258 48.3161 24.239C48.3161 10.8522 37.5002 0 24.1581 0C10.8159 0 0 10.8522 0 24.239C0 37.6258 10.8159 48.478 24.1581 48.478Z" fill="#FFDF31"/>
<path d="M43.1685 9.278C41.6151 7.31071 39.7741 5.59054 37.7079 4.17588C32.787 0.875648 26.8293 -0.495838 20.9668 0.322028C15.1043 1.13989 9.74545 4.09011 5.90859 8.61211C2.07174 13.1341 0.024213 18.9128 0.155077 24.8501C0.28594 30.7874 2.58607 36.4695 6.61842 40.8169C8.32989 42.6836 10.3198 44.2724 12.5171 45.5266C17.3859 48.1771 23.0146 49.0684 28.4602 48.0511C33.9059 47.0338 38.8377 44.1697 42.4295 39.9386C46.0212 35.7075 48.0547 30.3665 48.1892 24.8103C48.3238 19.2542 46.5512 13.8204 43.1685 9.41929V9.278ZM9.79464 37.112L34.5003 7.9436C36.627 9.29627 38.4667 11.0568 39.914 13.1242L15.7716 41.6176C13.5043 40.5232 11.4734 38.9923 9.79464 37.112V37.112Z" fill="#FFDF31"/>
<path d="M34.5003 7.94361L9.79463 37.112C6.70431 33.6304 4.97259 29.1453 4.91872 24.4834C4.86484 19.8216 6.49245 15.2973 9.50148 11.7448C12.5105 8.1922 16.6981 5.85081 21.2922 5.15226C25.8864 4.45371 30.5773 5.44508 34.5003 7.94361V7.94361Z" fill="#FFD528"/>
<path d="M43.4188 24.239C43.4157 27.51 42.5851 30.7267 41.0049 33.5878C39.4246 36.4489 37.1464 38.8607 34.3837 40.5973C31.621 42.3339 28.4641 43.3385 25.2089 43.5169C21.9536 43.6954 18.7065 43.0418 15.7716 41.6176L39.914 13.1242C42.2013 16.3756 43.4259 20.2593 43.4188 24.239V24.239Z" fill="#FFD528"/>
<path d="M38.2868 11.1148C34.6251 7.76881 29.8196 5.96666 24.8683 6.08265C19.917 6.19864 15.2005 8.22384 11.6984 11.7376C8.1964 15.2514 6.17795 19.9837 6.06235 24.9516C5.94675 29.9194 7.74288 34.7411 11.0777 38.415C9.15168 36.6551 7.60151 34.5214 6.52097 32.1431C5.44042 29.7648 4.85194 27.1913 4.79114 24.5782C4.73033 21.9652 5.19846 19.3669 6.16721 16.9406C7.13596 14.5143 8.58519 12.3104 10.4272 10.4621C12.2693 8.61393 14.4658 7.15985 16.8841 6.18786C19.3023 5.21587 21.8919 4.74617 24.4962 4.80718C27.1005 4.86818 29.6655 5.45863 32.0358 6.5428C34.4062 7.62697 36.5327 9.18232 38.2868 11.1148V11.1148Z" fill="#EFAE3A"/>
<path d="M35.3139 24.0349H26.505V24.4431H35.3139V24.0349Z" fill="#EFAE3A"/>
<path d="M36.3623 25.2908C36.9412 25.2908 37.4106 24.8199 37.4106 24.239C37.4106 23.6581 36.9412 23.1872 36.3623 23.1872C35.7833 23.1872 35.314 23.6581 35.314 24.239C35.314 24.8199 35.7833 25.2908 36.3623 25.2908Z" fill="#EFAE3A"/>
<path d="M37.8174 18.6188C38.3964 18.6188 38.8657 18.1479 38.8657 17.567C38.8657 16.9861 38.3964 16.5152 37.8174 16.5152C37.2384 16.5152 36.7691 16.9861 36.7691 17.567C36.7691 18.1479 37.2384 18.6188 37.8174 18.6188Z" fill="#EFAE3A"/>
<path d="M31.9187 24.239H31.5119V18.3676C31.5119 18.1012 31.6174 17.8456 31.8052 17.6572C31.993 17.4688 32.2477 17.3629 32.5133 17.3629H36.7691V17.7711H32.5133C32.3556 17.7711 32.2044 17.8339 32.0929 17.9458C31.9814 18.0577 31.9187 18.2094 31.9187 18.3676V24.239Z" fill="#EFAE3A"/>
<path d="M37.8174 31.9628C38.3964 31.9628 38.8657 31.4919 38.8657 30.911C38.8657 30.3301 38.3964 29.8592 37.8174 29.8592C37.2384 29.8592 36.7691 30.3301 36.7691 30.911C36.7691 31.4919 37.2384 31.9628 37.8174 31.9628Z" fill="#EFAE3A"/>
<path d="M36.7691 31.1151H32.5133C32.2477 31.1151 31.993 31.0092 31.8052 30.8208C31.6174 30.6324 31.5119 30.3768 31.5119 30.1103V24.239H31.9187V30.1103C31.9187 30.2686 31.9814 30.4203 32.0929 30.5322C32.2044 30.644 32.3556 30.7069 32.5133 30.7069H36.7691V31.1151Z" fill="#EFAE3A"/>
<path d="M21.8111 24.0349H13.0022V24.4431H21.8111V24.0349Z" fill="#EFAE3A"/>
<path d="M11.9539 25.2908C12.5329 25.2908 13.0022 24.8199 13.0022 24.239C13.0022 23.6581 12.5329 23.1872 11.9539 23.1872C11.3749 23.1872 10.9056 23.6581 10.9056 24.239C10.9056 24.8199 11.3749 25.2908 11.9539 25.2908Z" fill="#EFAE3A"/>
<path d="M10.4831 18.6188C11.0621 18.6188 11.5314 18.1479 11.5314 17.567C11.5314 16.9861 11.0621 16.5152 10.4831 16.5152C9.90416 16.5152 9.43481 16.9861 9.43481 17.567C9.43481 18.1479 9.90416 18.6188 10.4831 18.6188Z" fill="#EFAE3A"/>
<path d="M16.8043 24.239H16.3974V18.3676C16.3974 18.2094 16.3348 18.0577 16.2233 17.9458C16.1118 17.8339 15.9606 17.7711 15.8029 17.7711H11.5471V17.3629H15.8029C16.0685 17.3629 16.3232 17.4688 16.511 17.6572C16.6988 17.8456 16.8043 18.1012 16.8043 18.3676V24.239Z" fill="#EFAE3A"/>
<path d="M10.4831 31.9628C11.0621 31.9628 11.5314 31.4919 11.5314 30.911C11.5314 30.3301 11.0621 29.8592 10.4831 29.8592C9.90416 29.8592 9.43481 30.3301 9.43481 30.911C9.43481 31.4919 9.90416 31.9628 10.4831 31.9628Z" fill="#EFAE3A"/>
<path d="M15.8029 31.1151H11.5471V30.7069H15.8029C15.9606 30.7069 16.1118 30.644 16.2233 30.5322C16.3348 30.4203 16.3974 30.2686 16.3974 30.1103V24.239H16.8043V30.1103C16.8043 30.3768 16.6988 30.6324 16.511 30.8208C16.3232 31.0092 16.0685 31.1151 15.8029 31.1151Z" fill="#EFAE3A"/>
<path d="M24.3615 26.6723H23.9547V35.5107H24.3615V26.6723Z" fill="#EFAE3A"/>
<path d="M24.158 37.6144C24.737 37.6144 25.2064 37.1435 25.2064 36.5626C25.2064 35.9817 24.737 35.5107 24.158 35.5107C23.5791 35.5107 23.1097 35.9817 23.1097 36.5626C23.1097 37.1435 23.5791 37.6144 24.158 37.6144Z" fill="#EFAE3A"/>
<path d="M17.5083 39.0744C18.0873 39.0744 18.5566 38.6034 18.5566 38.0225C18.5566 37.4416 18.0873 36.9707 17.5083 36.9707C16.9294 36.9707 16.46 37.4416 16.46 38.0225C16.46 38.6034 16.9294 39.0744 17.5083 39.0744Z" fill="#EFAE3A"/>
<path d="M17.7117 36.9707H17.3049V32.7006C17.3049 32.4342 17.4104 32.1786 17.5982 31.9902C17.786 31.8018 18.0407 31.6959 18.3063 31.6959H24.1581V32.1041H18.3063C18.1486 32.1041 17.9974 32.1669 17.8859 32.2788C17.7744 32.3907 17.7117 32.5424 17.7117 32.7006V36.9707Z" fill="#EFAE3A"/>
<path d="M30.8078 39.0744C31.3867 39.0744 31.8561 38.6034 31.8561 38.0225C31.8561 37.4416 31.3867 36.9707 30.8078 36.9707C30.2288 36.9707 29.7595 37.4416 29.7595 38.0225C29.7595 38.6034 30.2288 39.0744 30.8078 39.0744Z" fill="#EFAE3A"/>
<path d="M31.0112 36.9707H30.6044V32.7006C30.6044 32.5424 30.5418 32.3907 30.4303 32.2788C30.3188 32.1669 30.1675 32.1041 30.0098 32.1041H24.1581V31.6959H30.0098C30.2754 31.6959 30.5301 31.8018 30.7179 31.9902C30.9057 32.1786 31.0112 32.4342 31.0112 32.7006V36.9707Z" fill="#EFAE3A"/>
<path d="M24.3615 13.0457H23.9547V21.8841H24.3615V13.0457Z" fill="#EFAE3A"/>
<path d="M24.158 13.0457C24.737 13.0457 25.2064 12.5748 25.2064 11.9939C25.2064 11.413 24.737 10.9421 24.158 10.9421C23.5791 10.9421 23.1097 11.413 23.1097 11.9939C23.1097 12.5748 23.5791 13.0457 24.158 13.0457Z" fill="#EFAE3A"/>
<path d="M17.5083 11.57C18.0873 11.57 18.5566 11.0991 18.5566 10.5182C18.5566 9.9373 18.0873 9.46638 17.5083 9.46638C16.9294 9.46638 16.46 9.9373 16.46 10.5182C16.46 11.0991 16.9294 11.57 17.5083 11.57Z" fill="#EFAE3A"/>
<path d="M24.1581 16.8605H18.3063C18.0407 16.8605 17.786 16.7547 17.5982 16.5663C17.4104 16.3778 17.3049 16.1223 17.3049 15.8558V11.5857H17.7117V15.8558C17.7117 16.014 17.7744 16.1658 17.8859 16.2776C17.9974 16.3895 18.1486 16.4524 18.3063 16.4524H24.1581V16.8605Z" fill="#EFAE3A"/>
<path d="M30.8078 11.57C31.3867 11.57 31.8561 11.0991 31.8561 10.5182C31.8561 9.9373 31.3867 9.46638 30.8078 9.46638C30.2288 9.46638 29.7595 9.9373 29.7595 10.5182C29.7595 11.0991 30.2288 11.57 30.8078 11.57Z" fill="#EFAE3A"/>
<path d="M30.0098 16.8605H24.1581V16.4524H30.0098C30.1675 16.4524 30.3188 16.3895 30.4303 16.2776C30.5418 16.1658 30.6044 16.014 30.6044 15.8558V11.5857H31.0112V15.8558C31.0112 16.1223 30.9057 16.3778 30.7179 16.5663C30.5301 16.7547 30.2754 16.8605 30.0098 16.8605V16.8605Z" fill="#EFAE3A"/>
<path d="M23.9704 30.6441C23.8462 30.6465 23.7228 30.6241 23.6073 30.5783C23.4918 30.5325 23.3865 30.4641 23.2976 30.3772C23.2107 30.2914 23.1422 30.1886 23.0965 30.0752C23.0507 29.9618 23.0286 29.8402 23.0316 29.7179V20.1102L23.2663 20.4399L21.6077 21.6016C21.4585 21.726 21.2698 21.7928 21.0758 21.79C20.9577 21.7885 20.8412 21.7626 20.7335 21.714C20.6259 21.6654 20.5293 21.595 20.4499 21.5074C20.3609 21.4223 20.2901 21.3201 20.2416 21.2067C20.1932 21.0934 20.1683 20.9713 20.1683 20.848C20.1716 20.6896 20.2168 20.5349 20.2993 20.3997C20.3818 20.2646 20.4985 20.1538 20.6377 20.0788L23.3601 18.2734C23.4594 18.1948 23.5787 18.1458 23.7044 18.1321H24.0486C24.1709 18.1262 24.2929 18.147 24.4064 18.1931C24.5199 18.2392 24.622 18.3094 24.7057 18.399C24.7898 18.4862 24.8554 18.5895 24.8984 18.7029C24.9414 18.8162 24.9611 18.9372 24.9561 19.0584V29.765C24.959 29.8873 24.9369 30.0089 24.8912 30.1223C24.8454 30.2357 24.777 30.3385 24.6901 30.4243C24.487 30.5872 24.2294 30.6658 23.9704 30.6441V30.6441Z" fill="#EFAE3A"/>
<path d="M58.6115 32.1355C58.3515 32.1539 58.0915 32.0996 57.8605 31.9785C57.7797 31.9342 57.7089 31.8737 57.6524 31.8007C57.5959 31.7278 57.5549 31.6441 57.5319 31.5546C57.5072 31.3513 57.5072 31.1457 57.5319 30.9424V19.6235C57.5063 19.4308 57.5063 19.2354 57.5319 19.0427C57.5824 18.8599 57.6997 18.7029 57.8605 18.6031C58.108 18.4811 58.3833 18.427 58.6584 18.4461C58.8613 18.4245 59.0658 18.4245 59.2687 18.4461C59.3874 18.4677 59.4998 18.516 59.5972 18.5874C59.6867 18.6475 59.766 18.7217 59.8319 18.8072L64.5259 25.4949H64.1503L68.9382 18.8386C69.0157 18.7423 69.1114 18.6623 69.2198 18.6031C69.3257 18.54 69.4425 18.4974 69.564 18.4775H70.1429C70.4128 18.4611 70.6824 18.5152 70.9252 18.6345C71.0811 18.7431 71.1924 18.9049 71.2382 19.0898C71.2641 19.2878 71.2641 19.4883 71.2382 19.6863V31.0052C71.2621 31.198 71.2621 31.3931 71.2382 31.586C71.1923 31.7626 71.0802 31.9144 70.9252 32.0099C70.673 32.1346 70.392 32.1889 70.1116 32.1669C69.8417 32.1833 69.5722 32.1292 69.3293 32.0099C69.1763 31.8984 69.0659 31.7377 69.0164 31.5546C68.9915 31.3618 68.9915 31.1666 69.0164 30.9738V22.5278L65.4646 27.677L65.2925 27.8968C65.2004 27.9861 65.0948 28.0603 64.9796 28.1166C64.8108 28.185 64.6296 28.2171 64.4476 28.2108C64.2708 28.2159 64.095 28.1838 63.9313 28.1166C63.8208 28.0602 63.7204 27.986 63.634 27.8968L63.4306 27.6613L59.8945 22.5278V30.9738C59.9184 31.1666 59.9184 31.3617 59.8945 31.5546C59.8742 31.6431 59.836 31.7264 59.7821 31.7993C59.7283 31.8723 59.66 31.9333 59.5816 31.9785C59.2834 32.134 58.9433 32.189 58.6115 32.1355Z" fill="white"/>
<path d="M74.6804 20.5969C74.39 20.6184 74.0989 20.5644 73.8355 20.4399C73.7521 20.3874 73.68 20.3187 73.6236 20.2378C73.5671 20.1569 73.5275 20.0655 73.5069 19.9689C73.4815 19.7551 73.4815 19.539 73.5069 19.3252C73.4797 19.1116 73.4797 18.8953 73.5069 18.6816C73.5296 18.5879 73.5721 18.5002 73.6315 18.4244C73.6909 18.3486 73.7658 18.2864 73.8511 18.242C74.1134 18.1128 74.4043 18.0533 74.696 18.0693C74.9882 18.0464 75.281 18.1062 75.5409 18.242C75.6945 18.3629 75.8089 18.5268 75.8695 18.713C75.8962 18.932 75.8962 19.1534 75.8695 19.3723C75.8934 19.581 75.8934 19.7917 75.8695 20.0003C75.8163 20.1818 75.6997 20.3378 75.5409 20.4399C75.2723 20.5657 74.9759 20.6197 74.6804 20.5969ZM74.6804 32.1512C74.41 32.1747 74.1386 32.1203 73.898 31.9942C73.8166 31.9489 73.7462 31.8859 73.6921 31.8099C73.6379 31.7339 73.6014 31.6466 73.5851 31.5546C73.5596 31.3566 73.5596 31.1561 73.5851 30.9581V23.6581C73.5612 23.4652 73.5612 23.2701 73.5851 23.0773C73.6351 22.9028 73.7462 22.7522 73.898 22.6534C74.1492 22.5438 74.4227 22.4954 74.696 22.5121C74.9646 22.4908 75.234 22.5395 75.4783 22.6534C75.5573 22.7018 75.6256 22.7657 75.6794 22.8412C75.7332 22.9167 75.7712 23.0024 75.7913 23.093C75.8083 23.2967 75.8083 23.5015 75.7913 23.7052V30.9738C75.8091 31.1775 75.8091 31.3823 75.7913 31.586C75.7708 31.6724 75.7324 31.7534 75.6784 31.8238C75.6245 31.8941 75.5563 31.9522 75.4783 31.9942C75.2326 32.1215 74.9558 32.176 74.6804 32.1512V32.1512Z" fill="white"/>
<path d="M79.1396 32.1355C78.8694 32.1565 78.5987 32.1021 78.3573 31.9785C78.2072 31.8741 78.1013 31.7174 78.06 31.5389C78.0344 31.3409 78.0344 31.1404 78.06 30.9424V23.5482C78.0352 23.3607 78.0352 23.1706 78.06 22.9831C78.0784 22.8979 78.1163 22.8181 78.1706 22.75C78.2249 22.6819 78.2941 22.6274 78.3729 22.5906C78.6143 22.4669 78.885 22.4126 79.1552 22.4336C79.3965 22.4204 79.6374 22.4634 79.8593 22.5592C79.9949 22.6194 80.1054 22.7248 80.1723 22.8575C80.1938 22.9716 80.1938 23.0887 80.1723 23.2028C80.1723 23.3127 80.1723 23.4069 80.1723 23.4697L80.094 24.0977C80.187 23.8765 80.3195 23.6743 80.4852 23.5011C80.6852 23.29 80.9113 23.1053 81.158 22.9517C81.426 22.7931 81.709 22.6616 82.0029 22.5592C82.3124 22.4652 82.634 22.4176 82.9573 22.4179C83.4958 22.4194 84.0283 22.5316 84.522 22.7476C84.9995 22.964 85.4221 23.286 85.758 23.6895C86.1113 24.1169 86.382 24.6067 86.556 25.1338C86.738 25.7395 86.8276 26.3694 86.822 27.002V30.911C86.8476 31.109 86.8476 31.3095 86.822 31.5075C86.8036 31.5967 86.7661 31.6808 86.712 31.754C86.658 31.8272 86.5887 31.8877 86.5091 31.9314C86.2634 32.0587 85.9866 32.1132 85.7111 32.0884C85.436 32.1075 85.1607 32.0534 84.9131 31.9314C84.7593 31.8276 84.6481 31.6715 84.6002 31.4918C84.5823 31.2934 84.5823 31.0937 84.6002 30.8953V27.0334C84.612 26.618 84.5319 26.2051 84.3655 25.8246C84.2132 25.4989 83.9682 25.2257 83.6614 25.0396C83.3031 24.8401 82.8974 24.7424 82.4879 24.757C82.0885 24.7823 81.7015 24.9063 81.3614 25.1181C81.0274 25.3015 80.7552 25.5801 80.5791 25.9187C80.3907 26.2873 80.2991 26.6979 80.3131 27.1119V31.0366C80.331 31.235 80.331 31.4347 80.3131 31.6331C80.2947 31.7223 80.2572 31.8064 80.2031 31.8796C80.1491 31.9528 80.0798 32.0133 80.0002 32.057C79.7278 32.17 79.4278 32.1973 79.1396 32.1355V32.1355Z" fill="white"/>
<path d="M92.9241 32.1355C92.3561 32.1405 91.7927 32.0338 91.2656 31.8215C90.7667 31.6031 90.319 31.2822 89.9513 30.8796C89.5651 30.4595 89.2624 29.9693 89.0594 29.4353C88.8481 28.8354 88.7422 28.2033 88.7465 27.5671V23.6581C88.7286 23.4597 88.7286 23.26 88.7465 23.0616C88.7908 22.8843 88.9033 22.7319 89.0594 22.6377C89.5617 22.4367 90.1218 22.4367 90.6241 22.6377C90.7013 22.6863 90.7676 22.7504 90.8188 22.8261C90.87 22.9018 90.9049 22.9873 90.9214 23.0773C90.9469 23.2753 90.9469 23.4758 90.9214 23.6738V27.5671C90.9065 27.9844 90.9924 28.3991 91.1717 28.7759C91.318 29.1096 91.564 29.3894 91.8758 29.5766C92.2289 29.7748 92.6292 29.8725 93.0336 29.8592C93.4529 29.8718 93.8682 29.7744 94.2384 29.5766C94.5677 29.3923 94.8347 29.1135 95.0051 28.7759C95.1989 28.4032 95.2958 27.9874 95.2867 27.5671V23.6424C95.2612 23.4444 95.2612 23.2439 95.2867 23.0459C95.3041 22.9583 95.3413 22.8759 95.3956 22.8051C95.4499 22.7343 95.5197 22.677 95.5996 22.6377C95.8472 22.5157 96.1225 22.4616 96.3976 22.4807C96.6675 22.4643 96.937 22.5184 97.1799 22.6377C97.3311 22.741 97.4374 22.8982 97.4772 23.0773C97.5283 23.2667 97.5546 23.4619 97.5554 23.6581V31.0209C97.5537 31.2067 97.5274 31.3914 97.4772 31.5703C97.4568 31.6567 97.4183 31.7377 97.3644 31.8081C97.3104 31.8784 97.2422 31.9365 97.1643 31.9785C96.9237 32.1046 96.6523 32.159 96.382 32.1355C96.1744 32.1655 95.9636 32.1655 95.7561 32.1355C95.6301 32.0832 95.5177 32.0027 95.4275 31.9C95.3614 31.8051 95.3137 31.6986 95.2867 31.586C95.2782 31.4815 95.2782 31.3765 95.2867 31.272L95.4432 30.7383C95.3448 30.8922 95.2293 31.0344 95.0989 31.1622C94.9232 31.3486 94.7293 31.5169 94.52 31.6645C94.2756 31.8356 94.0065 31.9679 93.7221 32.057C93.4611 32.121 93.1924 32.1474 92.9241 32.1355V32.1355Z" fill="white"/>
<path d="M100.137 22.6848H102.155L104.831 22.622C105.028 22.5964 105.228 22.5964 105.426 22.622C105.601 22.668 105.753 22.7805 105.848 22.936C105.97 23.1844 106.024 23.4606 106.004 23.7366C106.024 24.0026 105.97 24.2689 105.848 24.5059C105.805 24.5829 105.746 24.6504 105.676 24.7043C105.607 24.7583 105.527 24.7976 105.441 24.8198C105.248 24.8732 105.047 24.8996 104.847 24.8983H102.234H99.9963C99.8693 24.914 99.7405 24.8962 99.6225 24.8466C99.5045 24.7971 99.4014 24.7175 99.3235 24.6158C99.1798 24.3519 99.1146 24.0522 99.1357 23.7523C99.1105 23.4556 99.1939 23.1598 99.3704 22.9203C99.4661 22.8166 99.5875 22.7403 99.7221 22.6989C99.8568 22.6576 99.9999 22.6527 100.137 22.6848ZM104.534 32.1041C103.98 32.1145 103.428 32.0511 102.891 31.9157C102.477 31.816 102.097 31.608 101.789 31.313C101.481 31.0179 101.257 30.6463 101.138 30.2359C100.998 29.7248 100.929 29.1963 100.935 28.6661V20.4085C100.934 20.2018 100.96 19.9959 101.013 19.7962C101.033 19.7116 101.069 19.6318 101.12 19.5616C101.171 19.4915 101.236 19.4324 101.311 19.388C101.556 19.278 101.825 19.2295 102.093 19.2468C102.363 19.2232 102.635 19.2777 102.875 19.4037C103.035 19.4974 103.153 19.6492 103.204 19.8276C103.243 20.0189 103.264 20.2133 103.266 20.4085V28.6504C103.239 28.8692 103.239 29.0908 103.266 29.3097C103.304 29.4576 103.379 29.5931 103.485 29.7022C103.6 29.7902 103.734 29.8494 103.877 29.8749C104.074 29.8938 104.273 29.8938 104.471 29.8749C104.684 29.8486 104.9 29.8486 105.113 29.8749C105.195 29.8877 105.274 29.92 105.342 29.9691C105.41 30.0183 105.465 30.0828 105.504 30.1574C105.616 30.3861 105.665 30.6411 105.645 30.8953C105.668 31.1665 105.614 31.4389 105.488 31.6802C105.385 31.8346 105.229 31.9461 105.05 31.9942C104.857 32.0648 104.658 32.1174 104.455 32.1512L104.534 32.1041Z" fill="white"/>
<path d="M112.06 32.2768C111.299 32.2897 110.544 32.1509 109.838 31.8686C109.244 31.6045 108.711 31.2196 108.273 30.7383C107.863 30.2769 107.54 29.7451 107.319 29.1684C107.1 28.5756 106.989 27.9482 106.99 27.316C106.975 26.434 107.203 25.565 107.647 24.8041C108.073 24.0756 108.69 23.4783 109.431 23.0773C110.242 22.6528 111.145 22.437 112.06 22.4493C112.697 22.4337 113.332 22.5513 113.922 22.7947C114.418 22.9904 114.87 23.284 115.252 23.6581C115.602 23.9988 115.883 24.4039 116.081 24.8512C116.26 25.2459 116.356 25.6735 116.362 26.1071C116.394 26.3895 116.366 26.6754 116.28 26.946C116.194 27.2166 116.051 27.4657 115.862 27.677C115.528 27.9914 115.083 28.1607 114.626 28.148H109.525C109.534 28.5714 109.682 28.98 109.947 29.3097C110.216 29.6451 110.566 29.9048 110.964 30.0632C111.36 30.2357 111.785 30.3264 112.216 30.3301C112.508 30.3486 112.801 30.3486 113.092 30.3301L113.749 30.1888L114.219 29.8278L114.61 29.6394C114.715 29.5936 114.825 29.5619 114.939 29.5452C115.091 29.5321 115.243 29.5649 115.377 29.6394C115.533 29.7404 115.654 29.8888 115.721 30.0632C115.793 30.1757 115.851 30.2971 115.893 30.4243C115.907 30.5285 115.907 30.6341 115.893 30.7383C115.881 30.8906 115.833 31.0376 115.751 31.1664C115.669 31.2951 115.556 31.4015 115.424 31.4761C115.02 31.7509 114.569 31.9479 114.094 32.057C113.427 32.2137 112.744 32.2876 112.06 32.2768V32.2768ZM109.525 26.688H113.53C113.709 26.7 113.888 26.6619 114.047 26.5781C114.156 26.5781 114.219 26.3583 114.219 26.1228C114.219 25.8267 114.12 25.5392 113.937 25.3065C113.745 25.0575 113.492 24.8627 113.202 24.7413C112.855 24.597 112.482 24.5274 112.107 24.5373C111.653 24.5306 111.203 24.6273 110.792 24.8198C110.42 24.9871 110.101 25.2531 109.869 25.5891C109.639 25.9084 109.518 26.294 109.525 26.688V26.688Z" fill="white"/>
<path d="M119.241 32.1355C118.966 32.1546 118.691 32.1005 118.443 31.9785C118.361 31.9341 118.29 31.8714 118.236 31.7952C118.182 31.719 118.146 31.6313 118.13 31.5389C118.107 31.3408 118.107 31.1405 118.13 30.9424V19.6235C118.105 19.4308 118.105 19.2354 118.13 19.0427C118.181 18.8599 118.298 18.7029 118.459 18.6031C118.707 18.4811 118.982 18.427 119.257 18.4461H123.403C123.98 18.443 124.552 18.544 125.093 18.7444C125.637 18.9348 126.138 19.2339 126.564 19.6235C127.007 20.0253 127.359 20.5179 127.597 21.0678C127.872 21.7065 128.005 22.3975 127.988 23.093C128.008 23.7887 127.875 24.4804 127.597 25.1181C127.359 25.6721 127.001 26.1656 126.548 26.5624C126.118 26.9464 125.619 27.2448 125.077 27.4415C124.535 27.6343 123.964 27.7351 123.388 27.7398H120.477V30.9895C120.502 31.1876 120.502 31.3879 120.477 31.586C120.432 31.7626 120.319 31.9144 120.165 32.0099C119.877 32.1448 119.555 32.1886 119.241 32.1355V32.1355ZM120.477 25.3065H123.45C123.833 25.3122 124.213 25.2318 124.561 25.071C124.892 24.8939 125.172 24.6344 125.375 24.3175C125.595 23.9312 125.704 23.4907 125.688 23.0459C125.698 22.6354 125.601 22.2293 125.406 21.8685C125.22 21.5456 124.949 21.2797 124.624 21.0992C124.258 20.9047 123.849 20.8074 123.435 20.8166H120.477V25.3065Z" fill="white"/>
<path d="M137.688 32.1198C137.39 32.1416 137.094 32.0643 136.844 31.9C136.752 31.8345 136.678 31.747 136.629 31.6456C136.58 31.5441 136.557 31.4319 136.562 31.3192L136.703 30.6598C136.32 31.2171 135.773 31.6398 135.138 31.8686C134.673 32.0631 134.171 32.1542 133.667 32.1355C133.073 32.1396 132.485 32.0109 131.946 31.7587C131.401 31.5023 130.911 31.1394 130.507 30.6912C130.09 30.2326 129.761 29.7003 129.537 29.1213C129.289 28.5248 129.167 27.8835 129.177 27.2375C129.167 26.6168 129.29 26.0014 129.537 25.4321C129.758 24.8484 130.093 24.3147 130.522 23.8622C130.927 23.4187 131.417 23.0611 131.962 22.8104C132.496 22.56 133.078 22.4313 133.667 22.4336C134.13 22.4201 134.591 22.4892 135.029 22.6377C135.375 22.7663 135.698 22.952 135.983 23.1872C136.224 23.3842 136.44 23.611 136.625 23.8622L136.499 23.2814C136.491 23.1592 136.512 23.0367 136.561 22.9246C136.61 22.8124 136.685 22.7139 136.781 22.6377C137.032 22.461 137.336 22.3777 137.642 22.4022C137.913 22.3826 138.185 22.4426 138.424 22.5749C138.576 22.6842 138.682 22.8466 138.721 23.0302C138.739 23.2391 138.739 23.4492 138.721 23.6581V30.9267C138.739 31.1252 138.739 31.3248 138.721 31.5232C138.701 31.6138 138.663 31.6995 138.609 31.775C138.556 31.8505 138.487 31.9144 138.408 31.9628C138.186 32.0776 137.938 32.1317 137.688 32.1198V32.1198ZM134.09 29.8278C134.509 29.8319 134.921 29.7176 135.279 29.4981C135.633 29.271 135.923 28.9578 136.124 28.5876C136.34 28.1847 136.454 27.7343 136.454 27.2767C136.454 26.8191 136.34 26.3687 136.124 25.9659C135.907 25.602 135.606 25.2952 135.248 25.071C134.884 24.851 134.467 24.7368 134.043 24.7413C133.592 24.7377 133.148 24.857 132.76 25.0867C132.385 25.3089 132.076 25.629 131.868 26.013C131.645 26.4102 131.531 26.86 131.539 27.316C131.533 27.7617 131.647 28.201 131.868 28.5876C132.095 28.9734 132.421 29.2916 132.812 29.5095C133.202 29.7275 133.643 29.8373 134.09 29.8278Z" fill="white"/>
<path d="M145.042 31.2093L140.521 24.2547C140.316 24.0033 140.216 23.6832 140.239 23.3598C140.345 23.0627 140.565 22.8199 140.849 22.6848C141.121 22.4729 141.46 22.3669 141.804 22.3865C142.102 22.5046 142.346 22.7279 142.492 23.0145L146.075 28.6032L145.042 31.2093ZM143.212 36.1073C142.805 35.9189 142.555 35.7148 142.492 35.4793C142.446 35.165 142.506 34.8443 142.664 34.5688L147.718 23.2343C147.806 22.9174 148.014 22.6473 148.297 22.4807C148.618 22.437 148.945 22.4844 149.241 22.6175C149.537 22.7507 149.79 22.9643 149.971 23.2343C150.038 23.5397 149.988 23.8593 149.83 24.1291L144.745 35.5264C144.573 35.9503 144.385 36.2015 144.182 36.2643C143.85 36.3178 143.51 36.2628 143.212 36.1073Z" fill="white"/>
<path d="M15.7716 41.6176L12.5171 45.5266C10.3198 44.2725 8.32988 42.6837 6.61841 40.8169L9.74769 37.0492C11.4344 38.9571 13.482 40.5099 15.7716 41.6176V41.6176Z" fill="#FFF533"/>
<path d="M43.1685 9.278L39.914 13.1242C38.4668 11.0568 36.6271 9.29628 34.5004 7.94361L37.7079 4.17589C39.7741 5.59054 41.6152 7.31071 43.1685 9.278V9.278Z" fill="#FFF533"/>
</svg>
