<svg width="260" height="84" viewBox="0 0 260 84" fill="none" xmlns="http://www.w3.org/2000/svg">
<g clip-path="url(#clip0_1_2)">
<path d="M41.8734 84.0272C64.9994 84.0272 83.7467 65.2171 83.7467 42.0136C83.7467 18.8101 64.9994 0 41.8734 0C18.7473 0 0 18.8101 0 42.0136C0 65.2171 18.7473 84.0272 41.8734 84.0272Z" fill="#FFDF31"/>
<path d="M74.8242 16.0816C72.1318 12.6717 68.9408 9.69012 65.3593 7.23809C56.83 1.51777 46.5035 -0.859435 36.3419 0.558176C26.1803 1.97579 16.8919 7.08943 10.2414 14.9274C3.59097 22.7655 0.0419866 32.7816 0.268814 43.0728C0.49564 53.364 4.48247 63.2129 11.4718 70.7483C14.4383 73.9839 17.8874 76.7378 21.696 78.9116C30.1351 83.5058 39.8913 85.0507 49.3304 83.2874C58.7694 81.524 67.3178 76.5597 73.5434 69.2259C79.769 61.8921 83.2936 52.6345 83.5268 43.0039C83.76 33.3734 80.6876 23.955 74.8242 16.3265V16.0816ZM16.9771 64.3265L59.7997 13.7687C63.4859 16.1133 66.6747 19.1648 69.1833 22.7483L27.337 72.136C23.407 70.2392 19.887 67.5857 16.9771 64.3265V64.3265Z" fill="#FFDF31"/>
<path d="M59.7997 13.7687L16.9771 64.3265C11.6207 58.2918 8.61906 50.5177 8.52568 42.4373C8.4323 34.3569 11.2534 26.515 16.469 20.3573C21.6846 14.1996 28.943 10.1412 36.906 8.93044C44.8691 7.71963 53 9.43798 59.7997 13.7687V13.7687Z" fill="#FFD528"/>
<path d="M75.2581 42.0136C75.2527 47.6833 73.8131 53.2589 71.074 58.218C68.335 63.1771 64.3861 67.3575 59.5975 70.3676C54.8088 73.3776 49.337 75.1189 43.6947 75.4282C38.0523 75.7375 32.424 74.6047 27.337 72.136L69.1833 22.7483C73.1477 28.3839 75.2704 35.1156 75.2581 42.0136V42.0136Z" fill="#FFD528"/>
<path d="M66.3628 19.2653C60.016 13.4657 51.6865 10.3421 43.1043 10.5431C34.5222 10.7441 26.3471 14.2544 20.277 20.3449C14.2068 26.4354 10.7083 34.6379 10.5079 43.2487C10.3075 51.8596 13.4208 60.217 19.201 66.585C15.8626 63.5345 13.1757 59.8362 11.3028 55.7139C9.42988 51.5915 8.40987 47.1308 8.30448 42.6016C8.19908 38.0724 9.0105 33.5688 10.6896 29.3633C12.3688 25.1577 14.8807 21.3376 18.0736 18.1341C21.2664 14.9306 25.0737 12.4102 29.2652 10.7255C33.4567 9.04069 37.9453 8.22656 42.4594 8.33231C46.9735 8.43805 51.4193 9.46148 55.5279 11.3407C59.6365 13.2199 63.3224 15.9158 66.3628 19.2653V19.2653Z" fill="#EFAE3A"/>
<path d="M61.21 41.6599H45.9414V42.3673H61.21V41.6599Z" fill="#EFAE3A"/>
<path d="M63.027 43.8367C64.0305 43.8367 64.844 43.0205 64.844 42.0136C64.844 41.0067 64.0305 40.1905 63.027 40.1905C62.0235 40.1905 61.21 41.0067 61.21 42.0136C61.21 43.0205 62.0235 43.8367 63.027 43.8367Z" fill="#EFAE3A"/>
<path d="M65.5492 32.2721C66.5527 32.2721 67.3662 31.4559 67.3662 30.449C67.3662 29.4421 66.5527 28.6259 65.5492 28.6259C64.5457 28.6259 63.7321 29.4421 63.7321 30.449C63.7321 31.4559 64.5457 32.2721 65.5492 32.2721Z" fill="#EFAE3A"/>
<path d="M55.3249 42.0136H54.6198V31.8367C54.6198 31.3749 54.8027 30.9319 55.1282 30.6053C55.4537 30.2787 55.8952 30.0952 56.3555 30.0952H63.7322V30.8027H56.3555C56.0822 30.8027 55.82 30.9117 55.6268 31.1056C55.4335 31.2995 55.3249 31.5625 55.3249 31.8367V42.0136Z" fill="#EFAE3A"/>
<path d="M65.5492 55.4014C66.5527 55.4014 67.3662 54.5851 67.3662 53.5782C67.3662 52.5713 66.5527 51.7551 65.5492 51.7551C64.5457 51.7551 63.7321 52.5713 63.7321 53.5782C63.7321 54.5851 64.5457 55.4014 65.5492 55.4014Z" fill="#EFAE3A"/>
<path d="M63.7322 53.932H56.3555C55.8952 53.932 55.4537 53.7485 55.1282 53.4219C54.8027 53.0953 54.6198 52.6524 54.6198 52.1905V42.0136H55.3249V52.1905C55.3249 52.4647 55.4335 52.7277 55.6268 52.9216C55.82 53.1156 56.0822 53.2245 56.3555 53.2245H63.7322V53.932Z" fill="#EFAE3A"/>
<path d="M37.8054 41.6599H22.5368V42.3673H37.8054V41.6599Z" fill="#EFAE3A"/>
<path d="M20.7197 43.8367C21.7232 43.8367 22.5368 43.0205 22.5368 42.0136C22.5368 41.0067 21.7232 40.1905 20.7197 40.1905C19.7162 40.1905 18.9027 41.0067 18.9027 42.0136C18.9027 43.0205 19.7162 43.8367 20.7197 43.8367Z" fill="#EFAE3A"/>
<path d="M18.1704 32.2721C19.174 32.2721 19.9875 31.4559 19.9875 30.449C19.9875 29.4421 19.174 28.6259 18.1704 28.6259C17.1669 28.6259 16.3534 29.4421 16.3534 30.449C16.3534 31.4559 17.1669 32.2721 18.1704 32.2721Z" fill="#EFAE3A"/>
<path d="M29.1269 42.0136H28.4218V31.8367C28.4218 31.5625 28.3132 31.2995 28.12 31.1056C27.9267 30.9117 27.6646 30.8027 27.3912 30.8027H20.0146V30.0952H27.3912C27.8516 30.0952 28.2931 30.2787 28.6186 30.6053C28.9441 30.9319 29.1269 31.3749 29.1269 31.8367V42.0136Z" fill="#EFAE3A"/>
<path d="M18.1704 55.4014C19.174 55.4014 19.9875 54.5851 19.9875 53.5782C19.9875 52.5713 19.174 51.7551 18.1704 51.7551C17.1669 51.7551 16.3534 52.5713 16.3534 53.5782C16.3534 54.5851 17.1669 55.4014 18.1704 55.4014Z" fill="#EFAE3A"/>
<path d="M27.3912 53.932H20.0146V53.2245H27.3912C27.6646 53.2245 27.9267 53.1156 28.12 52.9216C28.3132 52.7277 28.4218 52.4647 28.4218 52.1905V42.0136H29.1269V52.1905C29.1269 52.6524 28.9441 53.0953 28.6186 53.4219C28.2931 53.7485 27.8516 53.932 27.3912 53.932Z" fill="#EFAE3A"/>
<path d="M42.2259 46.2313H41.5208V61.551H42.2259V46.2313Z" fill="#EFAE3A"/>
<path d="M41.8734 65.1973C42.8769 65.1973 43.6904 64.381 43.6904 63.3742C43.6904 62.3673 42.8769 61.551 41.8734 61.551C40.8699 61.551 40.0563 62.3673 40.0563 63.3742C40.0563 64.381 40.8699 65.1973 41.8734 65.1973Z" fill="#EFAE3A"/>
<path d="M30.3473 67.7279C31.3509 67.7279 32.1644 66.9117 32.1644 65.9048C32.1644 64.8979 31.3509 64.0816 30.3473 64.0816C29.3438 64.0816 28.5303 64.8979 28.5303 65.9048C28.5303 66.9117 29.3438 67.7279 30.3473 67.7279Z" fill="#EFAE3A"/>
<path d="M30.6999 64.0816H29.9948V56.6803C29.9948 56.2184 30.1776 55.7754 30.5032 55.4489C30.8287 55.1223 31.2701 54.9388 31.7305 54.9388H41.8734V55.6463H31.7305C31.4571 55.6463 31.195 55.7552 31.0017 55.9491C30.8085 56.143 30.6999 56.406 30.6999 56.6803V64.0816Z" fill="#EFAE3A"/>
<path d="M53.3994 67.7279C54.4029 67.7279 55.2164 66.9117 55.2164 65.9048C55.2164 64.8979 54.4029 64.0816 53.3994 64.0816C52.3959 64.0816 51.5823 64.8979 51.5823 65.9048C51.5823 66.9117 52.3959 67.7279 53.3994 67.7279Z" fill="#EFAE3A"/>
<path d="M53.7519 64.0816H53.0468V56.6803C53.0468 56.406 52.9382 56.143 52.745 55.9491C52.5517 55.7552 52.2896 55.6463 52.0163 55.6463H41.8734V54.9388H52.0163C52.4766 54.9388 52.9181 55.1223 53.2436 55.4489C53.5691 55.7754 53.7519 56.2184 53.7519 56.6803V64.0816Z" fill="#EFAE3A"/>
<path d="M42.2259 22.6122H41.5208V37.932H42.2259V22.6122Z" fill="#EFAE3A"/>
<path d="M41.8734 22.6123C42.8769 22.6123 43.6904 21.796 43.6904 20.7891C43.6904 19.7822 42.8769 18.966 41.8734 18.966C40.8699 18.966 40.0563 19.7822 40.0563 20.7891C40.0563 21.796 40.8699 22.6123 41.8734 22.6123Z" fill="#EFAE3A"/>
<path d="M30.3473 20.0544C31.3509 20.0544 32.1644 19.2382 32.1644 18.2313C32.1644 17.2244 31.3509 16.4082 30.3473 16.4082C29.3438 16.4082 28.5303 17.2244 28.5303 18.2313C28.5303 19.2382 29.3438 20.0544 30.3473 20.0544Z" fill="#EFAE3A"/>
<path d="M41.8734 29.2245H31.7305C31.2701 29.2245 30.8287 29.041 30.5032 28.7144C30.1776 28.3878 29.9948 27.9449 29.9948 27.483V20.0816H30.6999V27.483C30.6999 27.7572 30.8085 28.0202 31.0017 28.2142C31.195 28.4081 31.4571 28.517 31.7305 28.517H41.8734V29.2245Z" fill="#EFAE3A"/>
<path d="M53.3994 20.0544C54.4029 20.0544 55.2164 19.2382 55.2164 18.2313C55.2164 17.2244 54.4029 16.4082 53.3994 16.4082C52.3959 16.4082 51.5823 17.2244 51.5823 18.2313C51.5823 19.2382 52.3959 20.0544 53.3994 20.0544Z" fill="#EFAE3A"/>
<path d="M52.0163 29.2245H41.8734V28.517H52.0163C52.2896 28.517 52.5517 28.4081 52.745 28.2142C52.9382 28.0202 53.0468 27.7572 53.0468 27.483V20.0816H53.7519V27.483C53.7519 27.9449 53.5691 28.3878 53.2436 28.7144C52.9181 29.041 52.4766 29.2245 52.0163 29.2245V29.2245Z" fill="#EFAE3A"/>
<path d="M41.5479 53.1156C41.3327 53.1198 41.1188 53.081 40.9187 53.0016C40.7185 52.9222 40.536 52.8037 40.3818 52.6531C40.2311 52.5043 40.1125 52.3261 40.0332 52.1296C39.9539 51.933 39.9156 51.7222 39.9207 51.5102V34.8571L40.3275 35.4286L37.4528 37.4422C37.1941 37.6579 36.8671 37.7737 36.5307 37.7687C36.3261 37.7661 36.1242 37.7213 35.9376 37.637C35.7509 37.5527 35.5836 37.4308 35.4459 37.2789C35.2917 37.1315 35.1689 36.9542 35.0849 36.7577C35.001 36.5613 34.9578 36.3498 34.9578 36.136C34.9636 35.8614 35.0419 35.5933 35.1849 35.359C35.3278 35.1247 35.5302 34.9328 35.7714 34.8027L40.4903 31.6735C40.6623 31.5372 40.869 31.4523 41.0869 31.4286H41.6835C41.8955 31.4183 42.1071 31.4543 42.3038 31.5342C42.5004 31.6141 42.6775 31.7359 42.8226 31.8912C42.9683 32.0422 43.082 32.2214 43.1565 32.4179C43.2311 32.6143 43.2651 32.8239 43.2565 33.034V51.5918C43.2616 51.8038 43.2233 52.0146 43.144 52.2112C43.0647 52.4078 42.9461 52.5859 42.7955 52.7347C42.4434 53.017 41.997 53.1533 41.5479 53.1156V53.1156Z" fill="#EFAE3A"/>
<path d="M101.592 55.7007C101.141 55.7326 100.69 55.6384 100.29 55.4286C100.15 55.3517 100.027 55.2469 99.9293 55.1205C99.8313 54.9941 99.7602 54.8489 99.7205 54.6939C99.6776 54.3414 99.6776 53.9851 99.7205 53.6327V34.0136C99.6761 33.6795 99.6761 33.3409 99.7205 33.0068C99.808 32.69 100.011 32.4179 100.29 32.2449C100.719 32.0335 101.196 31.9396 101.673 31.9728C102.025 31.9354 102.379 31.9354 102.731 31.9728C102.937 32.0102 103.131 32.0939 103.3 32.2177C103.455 32.3219 103.593 32.4505 103.707 32.5986L111.843 44.1905H111.192L119.491 32.6531C119.625 32.4861 119.791 32.3474 119.979 32.2449C120.163 32.1356 120.365 32.0617 120.576 32.0272H121.579C122.047 31.9988 122.514 32.0926 122.935 32.2993C123.205 32.4876 123.398 32.7681 123.478 33.0884C123.523 33.4316 123.523 33.7793 123.478 34.1225V53.7415C123.519 54.0758 123.519 54.414 123.478 54.7483C123.398 55.0543 123.204 55.3175 122.935 55.483C122.498 55.6992 122.011 55.7932 121.525 55.7551C121.057 55.7835 120.59 55.6897 120.169 55.483C119.904 55.2897 119.712 55.0113 119.627 54.6939C119.583 54.3597 119.583 54.0213 119.627 53.6871V39.0476L113.47 47.9728L113.172 48.3537C113.012 48.5085 112.829 48.6371 112.63 48.7347C112.337 48.8534 112.023 48.909 111.708 48.898C111.401 48.9068 111.096 48.8512 110.813 48.7347C110.621 48.637 110.447 48.5083 110.297 48.3537L109.945 47.9456L103.816 39.0476V53.6871C103.857 54.0214 103.857 54.3596 103.816 54.6939C103.78 54.8472 103.714 54.9916 103.621 55.118C103.527 55.2444 103.409 55.3502 103.273 55.4286C102.756 55.6981 102.167 55.7935 101.592 55.7007Z" fill="black"/>
<path d="M129.444 35.7007C128.941 35.7381 128.436 35.6444 127.98 35.4286C127.835 35.3377 127.71 35.2186 127.612 35.0783C127.514 34.9381 127.446 34.7796 127.41 34.6122C127.366 34.2417 127.366 33.8672 127.41 33.4966C127.363 33.1262 127.363 32.7513 127.41 32.3809C127.449 32.2186 127.523 32.0665 127.626 31.9351C127.729 31.8037 127.859 31.6959 128.007 31.619C128.461 31.3951 128.966 31.292 129.471 31.3197C129.978 31.2799 130.485 31.3836 130.936 31.619C131.202 31.8286 131.4 32.1127 131.505 32.4354C131.551 32.8149 131.551 33.1987 131.505 33.5782C131.547 33.9398 131.547 34.305 131.505 34.6667C131.413 34.9812 131.211 35.2517 130.936 35.4286C130.47 35.6466 129.956 35.7404 129.444 35.7007ZM129.444 55.7279C128.975 55.7687 128.505 55.6743 128.088 55.4558C127.947 55.3773 127.825 55.2681 127.731 55.1363C127.637 55.0045 127.574 54.8534 127.546 54.6939C127.501 54.3506 127.501 54.0031 127.546 53.6599V41.0068C127.504 40.6725 127.504 40.3343 127.546 40C127.632 39.6975 127.825 39.4366 128.088 39.2653C128.523 39.0754 128.997 38.9915 129.471 39.0204C129.937 38.9836 130.404 39.0679 130.827 39.2653C130.964 39.3492 131.082 39.4599 131.176 39.5909C131.269 39.7218 131.335 39.8702 131.37 40.0272C131.399 40.3803 131.399 40.7353 131.37 41.0884V53.6871C131.4 54.0401 131.4 54.3952 131.37 54.7483C131.334 54.898 131.267 55.0384 131.174 55.1604C131.08 55.2823 130.962 55.383 130.827 55.4558C130.401 55.6765 129.921 55.7709 129.444 55.7279V55.7279Z" fill="black"/>
<path d="M137.173 55.7007C136.705 55.7371 136.236 55.6429 135.817 55.4286C135.557 55.2476 135.373 54.976 135.302 54.6667C135.258 54.3234 135.258 53.9759 135.302 53.6326V40.8163C135.259 40.4912 135.259 40.1618 135.302 39.8367C135.334 39.689 135.4 39.5508 135.494 39.4328C135.588 39.3148 135.708 39.2202 135.844 39.1565C136.263 38.9421 136.732 38.848 137.2 38.8844C137.618 38.8614 138.036 38.9359 138.421 39.102C138.656 39.2063 138.847 39.389 138.963 39.619C139.001 39.8168 139.001 40.0199 138.963 40.2177C138.963 40.4082 138.963 40.5714 138.963 40.6803L138.828 41.7687C138.989 41.3853 139.218 41.0349 139.506 40.7347C139.852 40.3687 140.244 40.0487 140.672 39.7823C141.136 39.5074 141.627 39.2795 142.136 39.102C142.673 38.9392 143.23 38.8567 143.791 38.8571C144.724 38.8598 145.647 39.0543 146.503 39.4286C147.33 39.8037 148.063 40.3618 148.645 41.0612C149.257 41.802 149.727 42.651 150.028 43.5646C150.344 44.6145 150.499 45.7062 150.489 46.8027V53.5782C150.534 53.9215 150.534 54.269 150.489 54.6122C150.457 54.7668 150.392 54.9126 150.299 55.0395C150.205 55.1664 150.085 55.2713 149.947 55.3469C149.521 55.5677 149.041 55.6621 148.564 55.619C148.087 55.6522 147.61 55.5584 147.181 55.3469C146.914 55.1671 146.721 54.8964 146.638 54.585C146.607 54.2411 146.607 53.895 146.638 53.551V46.8571C146.659 46.1371 146.52 45.4215 146.231 44.7619C145.967 44.1974 145.543 43.724 145.011 43.4014C144.39 43.0556 143.687 42.8862 142.977 42.9116C142.285 42.9553 141.614 43.1703 141.024 43.5374C140.445 43.8552 139.974 44.3382 139.668 44.9252C139.342 45.5639 139.183 46.2757 139.207 46.9932V53.7959C139.238 54.1399 139.238 54.486 139.207 54.8299C139.175 54.9845 139.11 55.1303 139.017 55.2572C138.923 55.3841 138.803 55.489 138.665 55.5646C138.193 55.7605 137.673 55.8079 137.173 55.7007V55.7007Z" fill="black"/>
<path d="M161.066 55.7007C160.082 55.7093 159.105 55.5244 158.191 55.1565C157.327 54.7779 156.551 54.2217 155.913 53.5238C155.244 52.7957 154.719 51.946 154.367 51.0204C154.001 49.9807 153.818 48.885 153.825 47.7823V41.0068C153.794 40.6628 153.794 40.3168 153.825 39.9728C153.902 39.6655 154.097 39.4014 154.367 39.2381C155.238 38.8898 156.209 38.8898 157.079 39.2381C157.213 39.3223 157.328 39.4335 157.417 39.5647C157.506 39.6958 157.566 39.8441 157.595 40C157.639 40.3432 157.639 40.6908 157.595 41.034V47.7823C157.569 48.5056 157.718 49.2244 158.029 49.8775C158.282 50.4559 158.709 50.9408 159.249 51.2653C159.861 51.6089 160.555 51.7782 161.256 51.7551C161.983 51.777 162.702 51.6082 163.344 51.2653C163.915 50.9458 164.378 50.4626 164.673 49.8775C165.009 49.2315 165.177 48.5108 165.161 47.7823V40.9796C165.117 40.6363 165.117 40.2888 165.161 39.9456C165.191 39.7937 165.256 39.6509 165.35 39.5282C165.444 39.4055 165.565 39.3062 165.704 39.2381C166.133 39.0267 166.61 38.9328 167.087 38.966C167.555 38.9376 168.022 39.0313 168.443 39.2381C168.705 39.4171 168.889 39.6896 168.958 40C169.047 40.3283 169.092 40.6667 169.094 41.0068V53.7687C169.09 54.0908 169.045 54.411 168.958 54.7211C168.923 54.8708 168.856 55.0112 168.762 55.1332C168.669 55.2551 168.551 55.3558 168.416 55.4286C167.999 55.6471 167.528 55.7415 167.06 55.7007C166.7 55.7528 166.334 55.7528 165.975 55.7007C165.756 55.6101 165.561 55.4705 165.405 55.2925C165.291 55.128 165.208 54.9434 165.161 54.7483C165.146 54.5672 165.146 54.3852 165.161 54.2041L165.432 53.2789C165.262 53.5457 165.062 53.7921 164.836 54.0136C164.531 54.3368 164.195 54.6286 163.832 54.8843C163.409 55.1808 162.942 55.4102 162.449 55.5646C161.997 55.6756 161.531 55.7214 161.066 55.7007V55.7007Z" fill="black"/>
<path d="M173.568 39.3197H177.067L181.704 39.2109C182.046 39.1665 182.393 39.1665 182.735 39.2109C183.04 39.2906 183.302 39.4856 183.467 39.7551C183.678 40.1856 183.771 40.6644 183.738 41.1429C183.772 41.6039 183.679 42.0654 183.467 42.4762C183.392 42.6097 183.291 42.7267 183.17 42.8202C183.049 42.9137 182.91 42.9818 182.762 43.0204C182.426 43.113 182.08 43.1587 181.731 43.1565H177.202H173.324C173.104 43.1836 172.881 43.1527 172.676 43.0668C172.472 42.9809 172.293 42.843 172.158 42.6667C171.909 42.2094 171.796 41.6899 171.833 41.1701C171.789 40.6557 171.934 40.143 172.239 39.7279C172.405 39.5483 172.616 39.4159 172.849 39.3442C173.083 39.2725 173.331 39.2641 173.568 39.3197ZM181.189 55.6463C180.23 55.6643 179.272 55.5545 178.341 55.3197C177.624 55.1469 176.965 54.7864 176.431 54.275C175.898 53.7636 175.509 53.1194 175.304 52.4082C175.06 51.5222 174.941 50.6062 174.951 49.6871V35.3742C174.949 35.0159 174.995 34.659 175.087 34.3129C175.121 34.1662 175.184 34.0279 175.273 33.9063C175.361 33.7847 175.473 33.6824 175.602 33.6054C176.028 33.4147 176.493 33.3307 176.958 33.3605C177.427 33.3197 177.897 33.4141 178.314 33.6327C178.591 33.795 178.795 34.0581 178.884 34.3673C178.951 34.6988 178.987 35.0359 178.992 35.3742V49.6599C178.944 50.0393 178.944 50.4233 178.992 50.8027C179.057 51.0592 179.188 51.2939 179.372 51.483C179.571 51.6355 179.804 51.7381 180.05 51.7823C180.393 51.8151 180.738 51.8151 181.081 51.7823C181.45 51.7368 181.823 51.7368 182.193 51.7823C182.336 51.8046 182.472 51.8606 182.59 51.9457C182.708 52.0309 182.804 52.1427 182.871 52.2721C183.065 52.6685 183.15 53.1104 183.115 53.551C183.155 54.0212 183.061 54.4932 182.843 54.9116C182.664 55.1791 182.394 55.3724 182.084 55.4558C181.75 55.5781 181.405 55.6692 181.053 55.7279L181.189 55.6463Z" fill="black"/>
<path d="M194.234 55.9456C192.916 55.9679 191.607 55.7274 190.383 55.2381C189.353 54.7804 188.43 54.1132 187.671 53.2789C186.961 52.4792 186.4 51.5574 186.016 50.5578C185.637 49.5303 185.444 48.4428 185.447 47.3469C185.421 45.8183 185.815 44.312 186.586 42.9932C187.324 41.7304 188.394 40.6951 189.678 40C191.083 39.2643 192.649 38.8903 194.234 38.9116C195.339 38.8844 196.438 39.0883 197.461 39.5102C198.322 39.8495 199.105 40.3584 199.766 41.0068C200.373 41.5973 200.861 42.2994 201.204 43.0748C201.515 43.7588 201.681 44.5 201.692 45.2517C201.747 45.741 201.698 46.2366 201.549 46.7056C201.399 47.1747 201.152 47.6066 200.824 47.9728C200.245 48.5177 199.475 48.8111 198.682 48.7891H189.84C189.856 49.5231 190.113 50.2312 190.573 50.8027C191.037 51.384 191.645 51.8341 192.335 52.1088C193.02 52.4077 193.758 52.565 194.505 52.5714C195.011 52.6034 195.518 52.6034 196.024 52.5714L197.163 52.3265L197.976 51.7007L198.654 51.3741C198.836 51.2948 199.028 51.2399 199.224 51.2109C199.488 51.1882 199.752 51.2451 199.983 51.3741C200.255 51.5492 200.464 51.8065 200.58 52.1088C200.706 52.3038 200.806 52.5142 200.878 52.7347C200.902 52.9153 200.902 53.0983 200.878 53.2789C200.858 53.5429 200.773 53.7977 200.632 54.0209C200.49 54.244 200.295 54.4285 200.065 54.5578C199.365 55.0341 198.583 55.3755 197.759 55.5646C196.604 55.8363 195.42 55.9643 194.234 55.9456V55.9456ZM189.84 46.2585H196.783C197.093 46.2792 197.403 46.2133 197.678 46.068C197.868 46.068 197.976 45.6871 197.976 45.2789C197.977 44.7656 197.805 44.2672 197.488 43.8639C197.155 43.4323 196.716 43.0948 196.214 42.8844C195.613 42.6341 194.966 42.5136 194.315 42.5306C193.529 42.5191 192.75 42.6866 192.037 43.0204C191.393 43.3104 190.839 43.7714 190.437 44.3537C190.038 44.9072 189.829 45.5755 189.84 46.2585V46.2585Z" fill="black"/>
<path d="M206.682 55.7007C206.205 55.7339 205.728 55.64 205.299 55.4286C205.156 55.3517 205.033 55.243 204.939 55.1109C204.845 54.9788 204.783 54.8268 204.756 54.6667C204.715 54.3232 204.715 53.9761 204.756 53.6326V34.0136C204.712 33.6795 204.712 33.3409 204.756 33.0068C204.844 32.69 205.047 32.4179 205.326 32.2449C205.755 32.0335 206.232 31.9396 206.709 31.9728H213.896C214.895 31.9674 215.887 32.1425 216.825 32.4898C217.768 32.8199 218.636 33.3383 219.374 34.0136C220.142 34.7101 220.753 35.5637 221.164 36.517C221.641 37.624 221.872 38.8217 221.842 40.0272C221.877 41.2332 221.646 42.432 221.164 43.5374C220.752 44.4976 220.132 45.3531 219.347 46.0408C218.601 46.7064 217.736 47.2236 216.798 47.5646C215.857 47.8987 214.867 48.0734 213.869 48.0816H208.824V53.7143C208.867 54.0576 208.867 54.405 208.824 54.7483C208.745 55.0543 208.551 55.3175 208.282 55.483C207.783 55.7169 207.225 55.7928 206.682 55.7007V55.7007ZM208.824 43.8639H213.977C214.641 43.8739 215.299 43.7344 215.903 43.4558C216.477 43.1488 216.962 42.699 217.313 42.1497C217.695 41.4801 217.883 40.7166 217.855 39.9456C217.874 39.2341 217.706 38.5302 217.367 37.9048C217.044 37.3451 216.575 36.8842 216.011 36.5714C215.377 36.2343 214.668 36.0657 213.95 36.0816H208.824V43.8639Z" fill="black"/>
<path d="M238.657 55.6735C238.14 55.7112 237.625 55.5773 237.192 55.2925C237.033 55.179 236.905 55.0274 236.82 54.8515C236.735 54.6756 236.695 54.4811 236.704 54.2857L236.948 53.1429C236.285 54.1088 235.336 54.8416 234.236 55.2381C233.429 55.5752 232.56 55.7331 231.687 55.7007C230.656 55.7078 229.637 55.4847 228.703 55.0476C227.758 54.6032 226.909 53.9742 226.208 53.1973C225.485 52.4023 224.915 51.4797 224.527 50.4762C224.098 49.4422 223.886 48.3307 223.903 47.2109C223.887 46.1352 224.1 45.0684 224.527 44.0816C224.911 43.0699 225.492 42.1449 226.236 41.3605C226.938 40.5918 227.786 39.9719 228.731 39.5374C229.656 39.1034 230.665 38.8804 231.687 38.8844C232.488 38.8608 233.287 38.9806 234.046 39.2381C234.647 39.4609 235.206 39.7828 235.7 40.1905C236.119 40.5319 236.492 40.9251 236.812 41.3605L236.595 40.3537C236.58 40.142 236.617 39.9297 236.702 39.7353C236.787 39.5409 236.918 39.3702 237.084 39.2381C237.518 38.9317 238.046 38.7874 238.575 38.8299C239.047 38.7959 239.518 38.8999 239.931 39.1293C240.195 39.3187 240.379 39.6001 240.446 39.9184C240.477 40.2806 240.477 40.6446 240.446 41.0068V53.6054C240.477 53.9495 240.477 54.2954 240.446 54.6395C240.412 54.7965 240.346 54.9449 240.253 55.0758C240.159 55.2067 240.041 55.3174 239.904 55.4014C239.519 55.6003 239.089 55.6941 238.657 55.6735V55.6735ZM232.419 51.7007C233.146 51.7078 233.86 51.5098 234.48 51.1293C235.093 50.7356 235.597 50.1927 235.945 49.551C236.32 48.8528 236.516 48.0721 236.516 47.2789C236.516 46.4858 236.32 45.705 235.945 45.0068C235.568 44.3761 235.048 43.8444 234.426 43.4558C233.796 43.0744 233.073 42.8765 232.338 42.8844C231.556 42.878 230.787 43.0849 230.114 43.483C229.463 43.8681 228.929 44.4229 228.568 45.0884C228.181 45.7769 227.984 46.5566 227.998 47.3469C227.987 48.1196 228.184 48.881 228.568 49.551C228.962 50.2198 229.527 50.7713 230.203 51.1491C230.88 51.5268 231.645 51.7172 232.419 51.7007Z" fill="black"/>
<path d="M251.403 54.0952L243.565 42.0408C243.211 41.6052 243.037 41.0503 243.077 40.4898C243.261 39.9747 243.642 39.554 244.135 39.3197C244.606 38.9524 245.193 38.7688 245.789 38.8027C246.306 39.0074 246.73 39.3945 246.982 39.8912L253.193 49.5782L251.403 54.0952ZM248.23 62.585C247.525 62.2585 247.091 61.9048 246.982 61.4966C246.902 60.9518 247.007 60.3958 247.281 59.9184L256.04 40.2721C256.194 39.7229 256.554 39.2547 257.044 38.966C257.601 38.8902 258.168 38.9723 258.681 39.2032C259.194 39.434 259.632 39.8043 259.946 40.2721C260.062 40.8015 259.975 41.3555 259.702 41.8231L250.888 61.5782C250.589 62.3129 250.264 62.7483 249.911 62.8571C249.336 62.95 248.747 62.8545 248.23 62.585Z" fill="black"/>
<path d="M27.337 72.1361L21.696 78.9116C17.8875 76.7378 14.4383 73.9839 11.4718 70.7483L16.8958 64.2177C19.8194 67.5246 23.3685 70.2161 27.337 72.1361V72.1361Z" fill="#FFF533"/>
<path d="M74.8242 16.0816L69.1833 22.7483C66.6747 19.1648 63.4859 16.1133 59.7997 13.7687L65.3593 7.23809C68.9408 9.69012 72.1318 12.6717 74.8242 16.0816V16.0816Z" fill="#FFF533"/>
</g>
<defs>
<clipPath id="clip0_1_2">
<rect width="260" height="84" fill="white"/>
</clipPath>
</defs>
</svg>
